<?xml version="1.0" encoding="iso-8859-1"?>
<!-- Generator: Adobe Illustrator 15.1.0, SVG Export Plug-In . SVG Version: 6.00 Build 0)  -->
<!DOCTYPE svg PUBLIC "-//W3C//DTD SVG 1.1//EN" "http://www.w3.org/Graphics/SVG/1.1/DTD/svg11.dtd">
<svg version="1.1" id="Layer_1" xmlns="http://www.w3.org/2000/svg" xmlns:xlink="http://www.w3.org/1999/xlink" x="0px" y="0px"
	 width="128px" height="128px" viewBox="0 0 128 128" style="enable-background:new 0 0 128 128;" xml:space="preserve">
<g>
	<circle style="fill:#0060aa;" cx="64" cy="64" r="64"/>
	<g>
		<path style="fill:#F5F5F5;" d="M48,18h44c1.1,0,2,0.9,2,2v82c0,1.1-0.9,2-2,2H30c-1.1,0-2-0.9-2-2V39L48,18z"/>
		<path style="fill:#E6E6E6;" d="M46,39c1.1,0,2-0.9,2-2V18L28,39H46z"/>
	</g>
	<polygon style="fill:#70CCBD;" points="91,100 31,100 31,97 37,87 43,89 54,65 63,70 73,60 81,72 91,47 	"/>
	<circle style="fill:#F2CF61;" cx="43" cy="89" r="2"/>
	<circle style="fill:#F2CF61;" cx="37" cy="87" r="2"/>
	<circle style="fill:#F2CF61;" cx="54" cy="65" r="2"/>
	<circle style="fill:#F2CF61;" cx="63" cy="70" r="2"/>
	<circle style="fill:#F2CF61;" cx="73" cy="60" r="2"/>
	<circle style="fill:#F2CF61;" cx="81" cy="72" r="2"/>
	<circle style="fill:#F2CF61;" cx="91" cy="47" r="2"/>
	<rect x="31" y="42" style="fill:#70CCBD;" width="1" height="59"/>
	<rect x="30" y="99" style="fill:#70CCBD;" width="61" height="1"/>
</g>
</svg>
