<?xml version="1.0" encoding="UTF-8" standalone="no"?>
<svg
   xmlns:dc="http://purl.org/dc/elements/1.1/"
   xmlns:cc="http://creativecommons.org/ns#"
   xmlns:rdf="http://www.w3.org/1999/02/22-rdf-syntax-ns#"
   xmlns:svg="http://www.w3.org/2000/svg"
   xmlns="http://www.w3.org/2000/svg"
   xml:space="preserve"
   style="enable-background:new 0 0 128 128;"
   viewBox="0 0 128 128"
   height="128px"
   width="128px"
   y="0px"
   x="0px"
   id="Layer_1"
   version="1.1"><metadata
     id="metadata25"><rdf:RDF><cc:Work
         rdf:about=""><dc:format>image/svg+xml</dc:format><dc:type
           rdf:resource="http://purl.org/dc/dcmitype/StillImage" /><dc:title></dc:title></cc:Work></rdf:RDF></metadata><defs
     id="defs23" /><g
     id="g18"><circle
       id="circle2"
       r="64"
       cy="64"
       cx="64"
       style="fill:#0060aa" /><g
       id="g16"><g
         id="g8"><path
           id="path4"
           d="m 48,18 h 44 c 1.1,0 2,0.9 2,2 v 82 c 0,1.1 -0.9,2 -2,2 H 30 c -1.1,0 -2,-0.9 -2,-2 V 39 Z"
           style="fill:#f5f5f5" /><path
           id="path6"
           d="m 46,39 c 1.1,0 2,-0.9 2,-2 V 18 L 28,39 Z"
           style="fill:#e6e6e6" /></g></g></g><path
     style="stroke-width:0.02715149;fill:#e6e6e6"
     d="m 51.687027,72.919501 -1.357553,1.357573 q -0.271522,0.271516 -0.624487,0.271516 -0.352965,0 -0.624486,-0.271516 L 36.427912,61.624483 q -0.271522,-0.271516 -0.271522,-0.624487 0,-0.352967 0.271522,-0.624484 l 12.65259,-12.65259 q 0.271521,-0.271517 0.624486,-0.271517 0.352965,0 0.624487,0.271517 l 1.357553,1.357573 q 0.271522,0.271516 0.271522,0.624484 0,0.352969 -0.271522,0.624483 l -10.67052,10.670534 10.67052,10.670538 q 0.271522,0.271513 0.271522,0.624483 0,0.352967 -0.271523,0.624484 z M 67.73357,43.948864 57.606063,79.001433 q -0.108607,0.352971 -0.420845,0.529453 -0.312245,0.176484 -0.638062,0.06788 l -1.683391,-0.461571 q -0.352971,-0.108607 -0.529453,-0.420849 -0.176485,-0.312244 -0.06788,-0.66521 L 64.393933,42.998565 q 0.108607,-0.352969 0.420847,-0.529451 0.312242,-0.176486 0.63806,-0.06788 l 1.683392,0.461574 q 0.352969,0.108607 0.529454,0.420849 0.176486,0.312242 0.06788,0.66521 z M 85.572094,61.624483 72.919503,74.277074 q -0.271512,0.271516 -0.624483,0.271516 -0.35297,0 -0.624483,-0.271516 l -1.357576,-1.357573 q -0.271515,-0.271517 -0.271515,-0.624484 0,-0.35297 0.271515,-0.624483 L 80.983495,60.999996 70.312961,50.329462 q -0.271515,-0.271514 -0.271515,-0.624483 0,-0.352968 0.271515,-0.624484 l 1.357576,-1.357573 q 0.271513,-0.271517 0.624483,-0.271517 0.352971,0 0.624483,0.271517 l 12.652591,12.65259 q 0.271516,0.271517 0.271516,0.624484 0,0.352971 -0.271516,0.624487 z"
     id="path27" /></svg>