<?xml version="1.0" encoding="iso-8859-1"?>
<!-- Generator: Adobe Illustrator 15.1.0, SVG Export Plug-In . SVG Version: 6.00 Build 0)  -->
<!DOCTYPE svg PUBLIC "-//W3C//DTD SVG 1.1//EN" "http://www.w3.org/Graphics/SVG/1.1/DTD/svg11.dtd">
<svg version="1.1" id="Layer_1" xmlns="http://www.w3.org/2000/svg" xmlns:xlink="http://www.w3.org/1999/xlink" x="0px" y="0px"
	 width="128px" height="128px" viewBox="0 0 128 128" style="enable-background:new 0 0 128 128;" xml:space="preserve">
<g>
	<circle style="fill:#0060aa;" cx="64" cy="64" r="64"/>
	<g>
		<g>
			<path style="fill:#F5F5F5;" d="M45,21h44c1.1,0,2,0.9,2,2v82c0,1.1-0.9,2-2,2H27c-1.1,0-2-0.9-2-2V42L45,21z"/>
			<path style="fill:#E6E6E6;" d="M43,42c1.1,0,2-0.9,2-2V21L25,42H43z"/>
		</g>
		<path style="fill:#A26BB0;" d="M103,94c0,2.2-1.8,4-4,4H63c-2.2,0-4-1.8-4-4V78c0-2.2,1.8-4,4-4h36c2.2,0,4,1.8,4,4V94z"/>
	</g>
	<g>
		<path style="fill:#F5F5F5;" d="M75.369,87.842l1.682,0.533c-0.258,0.938-0.688,1.634-1.285,2.089
			c-0.6,0.455-1.361,0.683-2.283,0.683c-1.141,0-2.078-0.39-2.813-1.168c-0.734-0.779-1.102-1.846-1.102-3.196
			c0-1.431,0.369-2.54,1.106-3.331c0.738-0.791,1.709-1.188,2.912-1.188c1.052,0,1.904,0.312,2.562,0.932
			c0.391,0.367,0.684,0.896,0.879,1.582l-1.717,0.41c-0.103-0.444-0.313-0.797-0.637-1.055c-0.322-0.258-0.714-0.387-1.175-0.387
			c-0.638,0-1.153,0.229-1.55,0.686s-0.596,1.197-0.596,2.221c0,1.087,0.195,1.859,0.586,2.32c0.392,0.461,0.898,0.691,1.523,0.691
			c0.461,0,0.857-0.146,1.189-0.439S75.225,88.471,75.369,87.842z"/>
		<path style="fill:#F5F5F5;" d="M78.1,88.205l1.688-0.164c0.103,0.566,0.308,0.982,0.618,1.248c0.31,0.266,0.729,0.398,1.257,0.398
			c0.56,0,0.979-0.119,1.263-0.354c0.284-0.235,0.426-0.513,0.426-0.829c0-0.203-0.061-0.376-0.18-0.52
			c-0.119-0.143-0.326-0.267-0.624-0.371c-0.202-0.07-0.666-0.195-1.389-0.375c-0.931-0.23-1.582-0.514-1.957-0.85
			c-0.527-0.474-0.791-1.05-0.791-1.729c0-0.438,0.124-0.847,0.372-1.228c0.248-0.382,0.605-0.672,1.072-0.871
			s1.029-0.299,1.689-0.299c1.078,0,1.891,0.236,2.436,0.709s0.83,1.104,0.857,1.894l-1.734,0.075
			c-0.074-0.44-0.232-0.758-0.478-0.951s-0.61-0.29-1.099-0.29c-0.504,0-0.898,0.104-1.185,0.311
			c-0.184,0.134-0.274,0.312-0.274,0.533c0,0.203,0.086,0.377,0.258,0.521c0.219,0.185,0.75,0.375,1.594,0.574
			s1.469,0.405,1.872,0.618c0.404,0.213,0.722,0.504,0.949,0.873s0.343,0.825,0.343,1.368c0,0.492-0.137,0.953-0.41,1.383
			s-0.66,0.749-1.16,0.958s-1.123,0.313-1.869,0.313c-1.086,0-1.92-0.252-2.502-0.754S78.213,89.166,78.1,88.205z"/>
		<path style="fill:#F5F5F5;" d="M88.734,91l-3.07-8.59h1.881l2.174,6.357l2.104-6.357h1.84L90.586,91H88.734z"/>
	</g>
</g>
</svg>
