<?xml version="1.0" encoding="UTF-8" standalone="no"?>
<svg
   xmlns:dc="http://purl.org/dc/elements/1.1/"
   xmlns:cc="http://creativecommons.org/ns#"
   xmlns:rdf="http://www.w3.org/1999/02/22-rdf-syntax-ns#"
   xmlns:svg="http://www.w3.org/2000/svg"
   xmlns="http://www.w3.org/2000/svg"
   xmlns:sodipodi="http://sodipodi.sourceforge.net/DTD/sodipodi-0.dtd"
   xmlns:inkscape="http://www.inkscape.org/namespaces/inkscape"
   width="246.10654pt"
   height="56.532532pt"
   viewBox="0 0 246.10653 56.532531"
   version="1.1"
   id="svg4318"
   inkscape:version="0.91 r13725"
   sodipodi:docname="logo_library.svg">
  <metadata
     id="metadata4407">
    <rdf:RDF>
      <cc:Work
         rdf:about="">
        <dc:format>image/svg+xml</dc:format>
        <dc:type
           rdf:resource="http://purl.org/dc/dcmitype/StillImage" />
        <dc:title></dc:title>
      </cc:Work>
    </rdf:RDF>
  </metadata>
  <defs
     id="defs4405" />
  <sodipodi:namedview
     pagecolor="#ffffff"
     bordercolor="#666666"
     borderopacity="1"
     objecttolerance="10"
     gridtolerance="10"
     guidetolerance="10"
     inkscape:pageopacity="0"
     inkscape:pageshadow="2"
     inkscape:window-width="1227"
     inkscape:window-height="755"
     id="namedview4403"
     showgrid="false"
     fit-margin-top="0"
     fit-margin-left="0"
     fit-margin-right="0"
     fit-margin-bottom="0"
     inkscape:zoom="1.4142136"
     inkscape:cx="149.46144"
     inkscape:cy="-15.99993"
     inkscape:window-x="53"
     inkscape:window-y="1"
     inkscape:window-maximized="1"
     inkscape:current-layer="svg4318" />
  <g
     id="surface95764"
     transform="translate(-35.898987,-40.515177)">
    <path
       style="fill:#ffffff;fill-opacity:1;fill-rule:nonzero;stroke:none"
       d="m 92.945312,75.171875 -2.347656,0.296875 0,13.332031 2.996094,0 c 1.609375,0 2.789062,-0.07813 3.546875,-0.230469 l 0.703125,-3.160156 0.738281,0 -0.203125,4.363282 -11.917968,0 0,-0.601563 1.949218,-0.304687 0,-13.398438 -1.949218,-0.296875 0,-0.601563 6.484374,0 z m 0,0"
       id="path4321"
       inkscape:connector-curvature="0" />
    <path
       style="fill:#ffffff;fill-opacity:1;fill-rule:nonzero;stroke:none"
       d="m 104.30469,75.636719 c 0,0.332031 -0.1211,0.621093 -0.36328,0.859375 -0.24219,0.246094 -0.53125,0.367187 -0.8711,0.367187 -0.33203,0 -0.62109,-0.121093 -0.86328,-0.367187 -0.24219,-0.238282 -0.36328,-0.527344 -0.36328,-0.859375 0,-0.339844 0.12109,-0.632813 0.36328,-0.871094 0.24219,-0.242187 0.53125,-0.363281 0.86328,-0.363281 0.33985,0 0.62891,0.121094 0.8711,0.363281 0.24218,0.238281 0.36328,0.53125 0.36328,0.871094 m -0.11328,13.34375 1.82422,0.285156 0,0.507813 -5.51954,0 0,-0.507813 1.8125,-0.285156 0,-9.070313 -1.50781,-0.285156 0,-0.507812 3.39063,0 z m 0,0"
       id="path4323"
       inkscape:connector-curvature="0" />
    <path
       style="fill:#ffffff;fill-opacity:1;fill-rule:nonzero;stroke:none"
       d="m 115.16797,84.152344 c 0,-1.394532 -0.24219,-2.429688 -0.72656,-3.109375 -0.48438,-0.679688 -1.23047,-1.019531 -2.2461,-1.019531 -0.44531,0 -0.88672,0.03906 -1.32422,0.117187 -0.4375,0.08203 -0.75781,0.167969 -0.95312,0.257813 l 0,8.445312 c 0.63672,0.121094 1.39453,0.183594 2.27734,0.183594 1.04297,0 1.80078,-0.410156 2.26953,-1.226563 0.46875,-0.816406 0.70313,-2.035156 0.70313,-3.648437 m -7.13281,-9.707032 -1.55078,-0.273437 0,-0.507813 3.43359,0 0,3.808594 c 0,0.40625 -0.0234,1.15625 -0.0664,2.246094 0.75391,-0.589844 1.70703,-0.882812 2.85547,-0.882812 1.44922,0 2.5625,0.4375 3.33985,1.320312 0.77343,0.878906 1.16015,2.210938 1.16015,3.996094 0,1.910156 -0.42578,3.363281 -1.27344,4.355468 C 115.08203,89.503906 113.85156,90 112.24219,90 111.59375,90 110.875,89.92969 110.09375,89.785156 109.3125,89.640625 108.625,89.453125 108.03516,89.21875 Z m 0,0"
       id="path4325"
       inkscape:connector-curvature="0" />
    <path
       style="fill:#ffffff;fill-opacity:1;fill-rule:nonzero;stroke:none"
       d="m 125.48047,78.835938 0,2.878906 -0.48438,0 -0.66015,-1.25 c -0.375,0 -0.82422,0.05078 -1.33985,0.152344 -0.51953,0.105468 -0.96875,0.238281 -1.34765,0.40625 l 0,7.957031 1.82812,0.285156 0,0.507813 -5.05468,0 0,-0.507813 1.34765,-0.285156 0,-9.070313 -1.34765,-0.28125 0,-0.511718 3.10546,0 0.10157,1.324218 c 0.45312,-0.375 1.0664,-0.738281 1.83984,-1.085937 0.77734,-0.347657 1.39063,-0.519531 1.84375,-0.519531 z m 0,0"
       id="path4327"
       inkscape:connector-curvature="0" />
    <path
       style="fill:#ffffff;fill-opacity:1;fill-rule:nonzero;stroke:none"
       d="m 132.37109,84.34375 -1.48437,0.04687 c -1.01563,0.03516 -1.69922,0.230469 -2.0586,0.589844 -0.35937,0.351562 -0.53906,0.945312 -0.53906,1.777343 0,1.328126 0.53906,1.996094 1.6211,1.996094 0.51562,0 0.95703,-0.05859 1.33203,-0.175781 0.375,-0.117187 0.75,-0.265625 1.1289,-0.449219 z m -1.50781,-5.464844 c 1.16406,0 2.01953,0.238282 2.56641,0.714844 0.54687,0.476562 0.82422,1.203125 0.82422,2.1875 l 0,7.199219 1.32421,0.285156 0,0.507813 -2.92578,0 -0.21484,-1.066407 C 131.57812,89.570312 130.47656,90 129.14062,90 c -1.82421,0 -2.73437,-1.058594 -2.73437,-3.175781 0,-0.710938 0.14063,-1.296875 0.41406,-1.761719 0.27735,-0.464844 0.71875,-0.820312 1.32031,-1.066406 0.60547,-0.246094 1.48438,-0.378906 2.63282,-0.402344 l 1.59765,-0.04297 0,-1.667969 c 0,-0.730468 -0.13281,-1.273437 -0.40234,-1.621093 -0.26953,-0.347657 -0.68359,-0.523438 -1.24219,-0.523438 -0.7539,0 -1.44531,0.179688 -2.07422,0.535157 l -0.38672,1.328124 -0.63281,0 0,-2.324218 c 1.22266,-0.265625 2.30078,-0.398438 3.23047,-0.398438"
       id="path4329"
       inkscape:connector-curvature="0" />
    <path
       style="fill:#ffffff;fill-opacity:1;fill-rule:nonzero;stroke:none"
       d="m 144.0625,78.835938 0,2.878906 -0.48438,0 -0.66015,-1.25 c -0.375,0 -0.82422,0.05078 -1.33985,0.152344 -0.51953,0.105468 -0.96875,0.238281 -1.34765,0.40625 l 0,7.957031 1.82812,0.285156 0,0.507813 -5.05468,0 0,-0.507813 1.34765,-0.285156 0,-9.070313 -1.34765,-0.28125 0,-0.511718 3.10546,0 0.10157,1.324218 c 0.45312,-0.375 1.0664,-0.738281 1.83984,-1.085937 0.77734,-0.347657 1.39063,-0.519531 1.84375,-0.519531 z m 0,0"
       id="path4331"
       inkscape:connector-curvature="0" />
    <path
       style="fill:#ffffff;fill-opacity:1;fill-rule:nonzero;stroke:none"
       d="m 147.31641,94.785156 c -0.58985,0 -1.17188,-0.07031 -1.7461,-0.203125 l 0,-2.304687 0.53125,0 0.375,1.089844 c 0.23438,0.175781 0.5625,0.261718 0.97656,0.261718 0.39063,0 0.75391,-0.113281 1.08985,-0.339844 0.33203,-0.226562 0.63281,-0.566406 0.91015,-1.011718 0.27735,-0.445313 0.6211,-1.242188 1.03907,-2.390625 l -4.0586,-9.976563 -1.08984,-0.28125 0,-0.511718 4.94531,0 0,0.511718 -1.67969,0.304688 2.87891,7.449218 2.78906,-7.472656 -1.66797,-0.28125 0,-0.511718 3.96875,0 0,0.511718 -1.10937,0.234375 -4.16406,10.578125 c -0.48828,1.246094 -0.91797,2.144532 -1.27735,2.6875 -0.36328,0.542969 -0.76562,0.957032 -1.20312,1.234375 -0.4375,0.28125 -0.94141,0.421875 -1.50781,0.421875"
       id="path4333"
       inkscape:connector-curvature="0" />
    <path
       style="fill:#ffffff;fill-opacity:1;fill-rule:nonzero;stroke:none"
       d="m 97.539062,56.398438 -0.03516,-0.0039 c -0.269531,0 -0.546875,0.0039 -0.820312,0.01953 -0.53125,0.03125 -1.066406,0.03516 -1.605469,-0.0039 -0.269531,-0.02344 -0.535156,-0.03125 -0.800781,-0.03125 -0.08594,0 -0.171875,0.01172 -0.25,0.03516 -0.06641,0.01563 -0.175782,0.07813 -0.175782,0.269532 0,0.21875 0.105469,0.324218 0.191407,0.375 0.101562,0.05859 0.230469,0.105468 0.375,0.132812 0.136719,0.02344 0.28125,0.05078 0.421875,0.06641 0.125,0.01953 0.226562,0.0625 0.300781,0.132813 0.07422,0.0625 0.125,0.195313 0.148437,0.390625 0.03516,0.207031 0.04688,0.449219 0.04688,0.71875 0,0.273438 -0.0039,0.558594 -0.01172,0.847656 -0.01172,0.292969 -0.01563,0.554688 -0.01563,0.792969 l 0,3.242187 c 0,0.289063 -0.02734,0.582032 -0.08984,0.859376 -0.08984,0.503906 -0.21875,0.933593 -0.371094,1.273437 -0.15625,0.335937 -0.363281,0.613281 -0.605468,0.824219 -0.246094,0.214844 -0.550782,0.367187 -0.902344,0.460937 -0.359375,0.08984 -0.796875,0.140625 -1.304688,0.140625 -0.421875,0 -0.816406,-0.04687 -1.160156,-0.136718 C 90.539062,66.71875 90.246094,66.5625 89.996094,66.34375 89.753906,66.121094 89.550781,65.8125 89.402344,65.421875 89.25,65.03125 89.148438,64.519531 89.113281,63.90625 c -0.01953,-0.308594 -0.03516,-0.621094 -0.03906,-0.933594 -0.0078,-0.316406 -0.0078,-0.628906 -0.0078,-0.941406 l 0,-2.785156 c 0,-0.152344 0,-0.3125 0.0078,-0.484375 0.0039,-0.167969 0.01563,-0.335938 0.03125,-0.496094 0.01563,-0.15625 0.03125,-0.300781 0.05078,-0.429687 0.01953,-0.125 0.04687,-0.222657 0.07422,-0.285157 0.05469,-0.132812 0.152343,-0.21875 0.296875,-0.265625 0.164062,-0.04687 0.332031,-0.08594 0.488281,-0.117187 0.179687,-0.02734 0.335937,-0.06641 0.480469,-0.105469 0.171875,-0.05469 0.269531,-0.183594 0.269531,-0.363281 0,-0.160157 -0.09375,-0.261719 -0.261719,-0.289063 -0.128906,-0.02344 -0.230468,-0.03125 -0.316406,-0.03125 -0.351562,0 -0.703125,0.01563 -1.046875,0.04687 -0.632813,0.05469 -1.328125,0.0625 -1.984375,0 -0.320312,-0.03125 -0.648438,-0.04687 -0.96875,-0.04687 -0.25,0 -0.394531,0.140625 -0.394531,0.378906 0,0.101563 0.03906,0.183594 0.121093,0.242188 0.06641,0.04687 0.144532,0.08203 0.230469,0.101562 0.08203,0.01172 0.15625,0.02344 0.238281,0.03125 0.08203,0.0039 0.144532,0.0078 0.195313,0.0078 l 0.167969,0 c 0.179687,0 0.308594,0.04297 0.398437,0.136719 0.09766,0.105468 0.164063,0.222656 0.207031,0.363281 0.03906,0.144531 0.0625,0.308594 0.06641,0.484375 0.0078,0.183594 0.01172,0.34375 0.01172,0.480469 0,0.855469 -0.01563,1.710937 -0.03125,2.546875 -0.02344,0.859375 -0.03125,1.714844 -0.03125,2.546875 l 0,0.5625 c 0,0.08984 0.0039,0.183593 0.0078,0.277343 0.0039,0.09375 0.01563,0.183594 0.02344,0.273438 0.05859,0.601562 0.210937,1.101562 0.453124,1.496094 0.238282,0.390625 0.546876,0.714844 0.921876,0.953125 0.371093,0.238281 0.796874,0.40625 1.273437,0.507812 0.46875,0.09375 0.96875,0.144531 1.488281,0.144531 0.4375,0 0.890625,-0.03125 1.347656,-0.09766 0.457032,-0.07031 0.90625,-0.1875 1.34375,-0.347656 0.492188,-0.199219 0.886719,-0.484375 1.160157,-0.851562 0.265625,-0.359376 0.46875,-0.769532 0.601562,-1.214844 0.132813,-0.449219 0.210938,-0.921875 0.242188,-1.410156 0.02344,-0.488282 0.03516,-0.957032 0.03516,-1.398438 0,-0.273438 -0.0039,-0.550781 -0.0078,-0.820312 -0.0039,-0.273438 -0.0039,-0.542969 -0.0039,-0.816407 0,-0.304687 -0.0039,-0.660156 -0.01563,-1.0625 0,-0.402343 0,-0.789062 0,-1.164062 0.01172,-0.375 0.02734,-0.699219 0.05859,-0.96875 0.03906,-0.359375 0.101563,-0.402344 0.109375,-0.40625 0.01953,-0.01563 0.08203,-0.03906 0.253906,-0.06641 0.148438,-0.01953 0.3125,-0.04687 0.46875,-0.08203 0.167969,-0.03906 0.324219,-0.08984 0.453125,-0.152343 0.191407,-0.09766 0.230469,-0.238282 0.230469,-0.339844 0,-0.101563 -0.05078,-0.234375 -0.273438,-0.316406"
       id="path4335"
       inkscape:connector-curvature="0" />
    <path
       style="fill:#ffffff;fill-opacity:1;fill-rule:nonzero;stroke:none"
       d="m 112.32031,56.390625 c -0.2539,0 -0.51953,0.0078 -0.80078,0.02344 -0.58203,0.03516 -1.19922,0.03125 -1.75781,-0.0039 -0.32031,-0.01953 -0.65234,-0.03125 -0.97266,-0.03125 -0.0977,0 -0.1875,0.01953 -0.26953,0.0625 -0.0703,0.03516 -0.15625,0.117188 -0.15625,0.289063 0,0.207031 0.11719,0.335937 0.32813,0.363281 0.16797,0.01953 0.36328,0.03516 0.57031,0.03906 0.19922,0.0039 0.39062,0.03516 0.56641,0.08594 0.15234,0.04687 0.25,0.160156 0.29296,0.351562 0.0273,0.117188 0.0469,0.246094 0.0508,0.371094 0.008,0.132813 0.008,0.265625 0.008,0.410156 0,0.785157 0.004,1.574219 0.008,2.363282 0.004,0.78125 0,1.578125 -0.008,2.363281 l 0,1.835937 c 0.008,0.160157 -0.0312,0.214844 -0.0703,0.230469 -0.82032,-0.984375 -1.54297,-1.839843 -2.16797,-2.574219 -0.63282,-0.742187 -1.19922,-1.410156 -1.70703,-2 -0.51954,-0.59375 -0.98047,-1.132812 -1.39844,-1.621093 -0.41797,-0.488281 -0.83203,-0.976563 -1.23828,-1.472657 -0.19532,-0.175781 -0.33985,-0.332031 -0.4336,-0.453124 -0.10547,-0.140626 -0.19922,-0.25 -0.28515,-0.34375 -0.0937,-0.101563 -0.19922,-0.175782 -0.30469,-0.226563 -0.10938,-0.04687 -0.26172,-0.07422 -0.45313,-0.07422 -0.17187,0 -0.33984,0.0039 -0.5,0.01172 -0.14843,0.01563 -0.30468,0.01953 -0.48437,0.01953 -0.23438,0 -0.44922,-0.0039 -0.64453,-0.01953 -0.21875,-0.0078 -0.4375,-0.01172 -0.660159,-0.01172 -0.08203,0 -0.183593,0.02734 -0.304687,0.08594 -0.175782,0.08203 -0.210938,0.207031 -0.210938,0.292968 0,0.117188 0.0625,0.210938 0.171875,0.265626 0.08984,0.04297 0.191407,0.07812 0.3125,0.101562 0.113281,0.01953 0.230469,0.03125 0.343749,0.03516 0.10938,0.0078 0.19141,0.01563 0.25,0.02344 0.21485,0.03906 0.39453,0.09375 0.50781,0.167968 0.1211,0.07422 0.21485,0.160157 0.27735,0.261719 0.0625,0.09766 0.0977,0.214844 0.11719,0.34375 0.008,0.144531 0.0195,0.296875 0.0195,0.453125 0,1.207032 -0.0117,2.414063 -0.0312,3.582032 l -0.0625,3.585937 c 0,0.140625 -0.004,0.285156 -0.0117,0.433594 -0.0117,0.140625 -0.0352,0.277343 -0.0781,0.398437 -0.043,0.117188 -0.10547,0.21875 -0.1914,0.296875 -0.082,0.07813 -0.19922,0.132813 -0.34766,0.160157 -0.082,0.0078 -0.17969,0.01562 -0.29687,0.01953 -0.13282,0.0039 -0.2461,0.01563 -0.355474,0.03125 -0.117187,0.01563 -0.222656,0.04687 -0.3125,0.09375 -0.105468,0.05469 -0.164062,0.152343 -0.164062,0.277343 0,0.15625 0.08203,0.261719 0.230468,0.304688 0.117188,0.03125 0.214844,0.04687 0.300782,0.04687 0.339846,0 0.683596,-0.0078 1.023436,-0.03125 0.625,-0.03906 1.2461,-0.04297 1.86719,0 0.29687,0.02344 0.59766,0.03125 0.88281,0.03125 0.0625,0 0.12891,-0.01172 0.19922,-0.03516 0.0977,-0.03516 0.15234,-0.109375 0.15234,-0.210938 0,-0.128906 -0.0508,-0.234375 -0.14843,-0.308593 -0.0898,-0.0625 -0.17578,-0.105469 -0.26953,-0.128907 -0.28516,-0.05859 -0.53125,-0.09766 -0.73829,-0.109375 -0.17968,-0.0039 -0.32812,-0.04687 -0.4414,-0.113281 -0.10156,-0.0625 -0.1836,-0.191406 -0.23438,-0.378906 -0.0625,-0.203125 -0.0937,-0.535157 -0.0937,-0.988281 0,-0.757813 0,-1.457032 -0.008,-2.085938 -0.0156,-0.601562 -0.0234,-1.160156 -0.0273,-1.675781 -0.008,-0.511719 -0.0117,-1.011719 -0.0195,-1.492188 -0.0117,-0.5 -0.0156,-1.015625 -0.0156,-1.535156 0,-0.109375 0.004,-0.222656 0.0156,-0.335937 0.16796,0.152343 0.32031,0.320312 0.45703,0.503906 0.17968,0.242187 0.35547,0.464844 0.53125,0.664062 0.61328,0.71875 1.15625,1.355469 1.63281,1.90625 l 0.50781,0.59375 c 0.57813,0.675782 1.06641,1.238282 1.44922,1.683594 0.37891,0.445312 0.67969,0.789062 0.89453,1.035156 0.21094,0.25 0.3711,0.433594 0.46875,0.546875 0.0977,0.117188 0.16406,0.191407 0.1875,0.21875 0.0312,0.03516 0.0508,0.05859 0.0508,0.05859 0.30469,0.378906 0.58203,0.722656 0.85547,1.046875 0.29297,0.34375 0.58203,0.6875 0.8711,1.027344 0.0312,0.03906 0.0703,0.08984 0.11718,0.148437 0.043,0.05859 0.0898,0.109375 0.14063,0.164063 0.0547,0.05469 0.10547,0.101562 0.15625,0.136718 0.0547,0.04297 0.11719,0.05859 0.17187,0.05859 0.0195,0 0.0352,0 0.0469,0 0.17187,-0.02734 0.28125,-0.148437 0.30078,-0.335937 0.0117,-0.148438 0.0234,-0.3125 0.0234,-0.484375 0,-1 0,-1.867188 0.004,-2.609375 0.008,-0.734375 0.008,-1.394531 0.008,-1.984375 l 0,-3.132813 c 0,-0.101562 0.008,-0.257812 0.0117,-0.46875 0.004,-0.210937 0.0156,-0.429687 0.0273,-0.65625 0.0117,-0.21875 0.043,-0.429687 0.082,-0.632812 0.0469,-0.234375 0.10156,-0.339844 0.13281,-0.382813 0.0586,-0.07031 0.15625,-0.121094 0.28906,-0.140625 0.16016,-0.02734 0.32032,-0.04687 0.48047,-0.05859 0.16407,-0.01563 0.31641,-0.04297 0.44922,-0.08203 0.16406,-0.04297 0.25781,-0.160156 0.25781,-0.324218 0,-0.128907 -0.0547,-0.351563 -0.42578,-0.351563"
       id="path4337"
       inkscape:connector-curvature="0" />
    <path
       style="fill:#ffffff;fill-opacity:1;fill-rule:nonzero;stroke:none"
       d="m 117.64063,59.988281 c 0.0117,-0.644531 0.0195,-1.28125 0.0195,-1.898437 0,-0.175782 0.0117,-0.332032 0.0195,-0.460938 0.0117,-0.113281 0.0391,-0.203125 0.10156,-0.28125 0.0547,-0.07422 0.15234,-0.132812 0.28125,-0.167968 0.14453,-0.03516 0.35156,-0.05469 0.60938,-0.05469 0.15625,0 0.28515,-0.01563 0.40234,-0.05078 0.082,-0.02344 0.22266,-0.101563 0.22266,-0.34375 0,-0.04297 -0.008,-0.09375 -0.0352,-0.160157 -0.0273,-0.06641 -0.0508,-0.105468 -0.082,-0.136718 l -0.0273,-0.02344 -1.35546,0 c -0.14454,0 -0.29688,0.0039 -0.44922,0.02344 -0.15625,0.01172 -0.29688,0.01953 -0.42969,0.01953 -0.29297,0 -0.58594,-0.01172 -0.87891,-0.04297 -0.28906,-0.03125 -0.58984,-0.04687 -0.89453,-0.04687 l -0.16797,0 c -0.0859,0 -0.17968,0.0078 -0.27343,0.02344 -0.14454,0.02344 -0.22657,0.121093 -0.22657,0.265625 0,0.226562 0.10938,0.320312 0.19922,0.359375 0.10938,0.04297 0.23828,0.07422 0.39063,0.08203 0.13672,0.01172 0.28125,0.02734 0.42968,0.05078 0.12891,0.02344 0.2461,0.08203 0.33204,0.171875 0.0391,0.04297 0.082,0.148438 0.12109,0.382813 0.0312,0.199219 0.043,0.378906 0.043,0.542969 l 0,0.289062 c 0,0.253906 -0.004,0.503906 -0.008,0.757812 -0.004,0.253907 -0.0117,0.507813 -0.0117,0.773438 l -0.008,5.304688 0,0.316406 c 0,0.183594 -0.0156,0.382812 -0.043,0.589844 -0.0195,0.179687 -0.0703,0.304687 -0.16016,0.371093 -0.0859,0.08203 -0.19531,0.136719 -0.33594,0.167969 -0.14844,0.03516 -0.29297,0.06641 -0.42578,0.08984 -0.13672,0.02734 -0.26172,0.05859 -0.36719,0.09375 -0.1875,0.07031 -0.21484,0.203125 -0.21484,0.277344 0,0.160156 0.0703,0.273437 0.20312,0.324218 0.10547,0.03906 0.21094,0.05859 0.32813,0.05859 l 0.21484,0 c 0.30469,0 0.58594,-0.01953 0.82813,-0.05469 0.44922,-0.06641 1.05859,-0.06641 1.64453,-0.0078 0.4375,0.04687 0.86719,0.07031 1.3125,0.02344 0.19531,-0.01953 0.30469,-0.144532 0.30469,-0.34375 0,-0.07422 -0.0312,-0.214844 -0.23438,-0.269532 -0.11328,-0.03125 -0.25,-0.0625 -0.39453,-0.08203 -0.14453,-0.03125 -0.29687,-0.05469 -0.45312,-0.08594 -0.13672,-0.02734 -0.25,-0.07422 -0.32813,-0.144532 -0.10156,-0.09766 -0.16406,-0.234375 -0.19141,-0.414062 -0.0195,-0.195313 -0.0352,-0.378906 -0.0352,-0.53125 l 0,-3.867188 c 0,-0.636718 0.008,-1.269531 0.0234,-1.890625"
       id="path4339"
       inkscape:connector-curvature="0" />
    <path
       style="fill:#ffffff;fill-opacity:1;fill-rule:nonzero;stroke:none"
       d="m 132.39453,56.390625 c -0.22656,0 -0.45703,0.01563 -0.6875,0.03906 -0.51953,0.0625 -1.08984,0.04687 -1.64844,-0.01563 -0.33593,-0.03125 -0.66797,-0.05078 -0.99218,-0.05078 -0.10547,0 -0.20313,0.03516 -0.27735,0.105469 -0.0781,0.07422 -0.11719,0.167969 -0.11719,0.273438 0,0.195312 0.10938,0.328124 0.3125,0.371093 0.16797,0.03516 0.35547,0.06641 0.55079,0.08594 0.1875,0.01953 0.35937,0.05859 0.51562,0.117187 0.0781,0.02734 0.17969,0.09375 0.17969,0.320313 0,0.02734 -0.0156,0.136719 -0.15235,0.570312 -0.10546,0.324219 -0.24218,0.726563 -0.41406,1.1875 -0.16406,0.464844 -0.34375,0.96875 -0.54297,1.507813 -0.19922,0.539062 -0.38672,1.050781 -0.57422,1.535156 -0.1875,0.484375 -0.35546,0.917969 -0.5039,1.296875 -0.15234,0.40625 -0.24609,0.644531 -0.30469,0.773437 l -0.0547,0.117188 c -0.0234,0.05078 -0.0508,0.101562 -0.082,0.152344 -0.0312,0.04297 -0.0625,0.07813 -0.0898,0.113281 -0.0352,-0.03516 -0.11328,-0.15625 -0.28516,-0.546875 -0.15234,-0.335938 -0.32812,-0.761719 -0.53125,-1.253906 -0.19922,-0.496094 -0.41406,-1.035156 -0.64453,-1.613282 -0.22656,-0.582031 -0.4414,-1.132812 -0.64844,-1.660156 -0.1914,-0.523437 -0.375,-0.992187 -0.52734,-1.402344 -0.14844,-0.40625 -0.24609,-0.6875 -0.29687,-0.839843 -0.008,-0.02734 -0.0195,-0.05859 -0.0273,-0.08984 -0.0117,-0.02734 -0.0117,-0.05078 -0.0117,-0.07422 0,-0.121094 0.0391,-0.1875 0.14453,-0.222656 0.13282,-0.04297 0.28516,-0.07031 0.45704,-0.07813 0.17578,-0.0078 0.33984,-0.02734 0.47656,-0.04687 0.26172,-0.03516 0.29687,-0.199219 0.29687,-0.289062 0,-0.117188 -0.0469,-0.21875 -0.13672,-0.296876 -0.0898,-0.07422 -0.1914,-0.113281 -0.30468,-0.113281 -0.36328,0 -0.72266,0.01563 -1.0586,0.04687 -0.57812,0.05078 -1.18359,0.07422 -1.76562,0 -0.23828,-0.03125 -0.48438,-0.04687 -0.73438,-0.04687 l -0.16797,0 c -0.11328,0 -0.22265,0.01953 -0.33984,0.05859 -0.18359,0.0625 -0.22266,0.183594 -0.22266,0.277344 0,0.171875 0.0859,0.292969 0.25,0.335937 0.1211,0.03906 0.26563,0.07031 0.4336,0.105469 0.15625,0.02734 0.32031,0.07422 0.47656,0.128906 0.14063,0.05078 0.25391,0.160157 0.33594,0.332031 0.50781,1.058594 0.97265,2.144532 1.39062,3.230469 0.41016,1.085938 0.83203,2.175781 1.25391,3.265625 0.23437,0.574219 0.47266,1.164063 0.71484,1.757813 0.2461,0.59375 0.48047,1.179687 0.71094,1.753906 0.0195,0.05859 0.0547,0.113281 0.10547,0.183594 0.0508,0.07813 0.13672,0.121093 0.23828,0.121093 0.11328,0 0.19141,-0.03125 0.23438,-0.09375 0.0352,-0.04297 0.0586,-0.09766 0.0781,-0.160156 0.36719,-0.90625 0.73828,-1.828125 1.09375,-2.746094 0.34375,-0.890624 0.71484,-1.8125 1.08984,-2.742187 0.22266,-0.558594 0.45703,-1.097656 0.67578,-1.613281 0.22657,-0.53125 0.44922,-1.078125 0.66016,-1.613282 0.0273,-0.07031 0.0703,-0.179687 0.12891,-0.328124 0.0508,-0.144532 0.10937,-0.292969 0.17968,-0.441407 0.0625,-0.152343 0.125,-0.292969 0.1836,-0.425781 0.0469,-0.128906 0.0937,-0.214844 0.11719,-0.253906 0.082,-0.117188 0.17578,-0.195313 0.28515,-0.234375 0.125,-0.04297 0.25,-0.07422 0.36719,-0.08984 0.12891,-0.02344 0.24219,-0.05859 0.33203,-0.101563 0.082,-0.03906 0.18359,-0.132812 0.18359,-0.34375 0,-0.07812 -0.0234,-0.152343 -0.0703,-0.21875 -0.0547,-0.07422 -0.13672,-0.117187 -0.23828,-0.117187"
       id="path4341"
       inkscape:connector-curvature="0" />
    <path
       style="fill:#ffffff;fill-opacity:1;fill-rule:nonzero;stroke:none"
       d="m 143.53125,64.894531 c -0.11719,0 -0.23047,0.08594 -0.34766,0.261719 -0.0937,0.148438 -0.19922,0.320312 -0.30468,0.515625 -0.10157,0.183594 -0.21875,0.375 -0.33985,0.566406 -0.10937,0.179688 -0.23437,0.3125 -0.36328,0.394531 -0.0742,0.04688 -0.16797,0.08594 -0.28125,0.109376 -0.12109,0.03125 -0.25781,0.05469 -0.39844,0.07031 -0.14453,0.01563 -0.29297,0.02734 -0.45703,0.03516 -0.16406,0.01172 -0.30469,0.01953 -0.43359,0.01953 l -0.47266,0 c -0.0898,0 -0.23828,-0.0039 -0.45312,-0.01172 -0.20703,-0.0039 -0.42969,-0.01172 -0.65235,-0.01953 -0.21875,-0.0078 -0.43359,-0.03125 -0.64062,-0.05469 -0.23438,-0.02734 -0.34375,-0.0625 -0.39063,-0.08984 -0.0977,-0.04687 -0.16406,-0.121094 -0.20703,-0.222656 -0.0547,-0.105469 -0.0937,-0.226562 -0.11719,-0.351562 -0.0234,-0.136719 -0.0391,-0.265626 -0.0469,-0.398438 -0.004,-0.136719 -0.004,-0.257812 -0.004,-0.367188 l 0,-2.394531 c 0,-0.03906 -0.004,-0.113281 -0.008,-0.214843 -0.008,-0.09766 0,-0.195313 0.008,-0.292969 0.004,-0.09375 0.0234,-0.183594 0.043,-0.257813 0.0156,-0.0625 0.0391,-0.06641 0.0547,-0.06641 0.0312,-0.01172 0.0937,-0.02344 0.17578,-0.03125 0.082,-0.0078 0.17188,-0.01563 0.25781,-0.01953 l 0.0312,-0.0039 c 0.082,-0.0039 0.15625,-0.0078 0.23047,-0.01562 0.0742,0 0.14063,-0.0078 0.19141,-0.0078 0.19531,0 0.41015,0 0.66015,-0.0039 l 0.0898,-0.0039 c 0.21094,0 0.41406,0.01563 0.60547,0.04688 0.21484,0.03125 0.40234,0.09375 0.55468,0.183593 0.14454,0.08594 0.23438,0.203125 0.26954,0.375 l 0.0117,0.02734 c 0.0273,0.03906 0.0469,0.113281 0.0664,0.21875 0.0195,0.113281 0.043,0.230469 0.0664,0.351563 0.0273,0.121093 0.0625,0.226562 0.10547,0.328124 0.0703,0.15625 0.17578,0.191407 0.2539,0.191407 0.0977,0 0.17578,-0.03516 0.23047,-0.105469 0.0469,-0.05859 0.0703,-0.132812 0.0859,-0.21875 0.008,-0.07422 0.0117,-0.15625 0.008,-0.238281 -0.008,-0.07422 -0.008,-0.132813 -0.008,-0.183594 0,-0.210937 -0.004,-0.421875 -0.0156,-0.632813 -0.008,-0.210937 -0.0156,-0.421874 -0.0156,-0.625 0,-0.207031 0.008,-0.417968 0.0156,-0.628906 0.0117,-0.214844 0.0156,-0.425781 0.0156,-0.644531 0,-0.113281 -0.004,-0.21875 -0.0156,-0.324219 -0.0117,-0.148437 -0.11328,-0.234375 -0.27343,-0.234375 -0.14454,0 -0.21485,0.07031 -0.25,0.125 -0.043,0.05859 -0.0742,0.117188 -0.10938,0.179688 l -0.008,0.03906 c -0.0156,0.273438 -0.0859,0.507813 -0.21094,0.695313 -0.11719,0.183594 -0.3125,0.292968 -0.58594,0.339844 -0.26562,0.03906 -0.54297,0.0625 -0.82422,0.06641 -0.28125,0.0039 -0.55468,0.0078 -0.83203,0.0078 -0.0586,0 -0.13672,0.0039 -0.23047,0.0078 -0.0898,0.0039 -0.17968,0.0039 -0.26953,0 -0.0977,-0.0039 -0.17578,-0.01563 -0.25,-0.03516 -0.0508,-0.01172 -0.0898,-0.03516 -0.12109,-0.0625 -0.0117,-0.07031 -0.0195,-0.160156 -0.0195,-0.273437 l 0,-0.347656 c 0,-0.34375 0,-0.6875 -0.008,-1.03125 -0.004,-0.34375 -0.004,-0.683594 -0.004,-1.03125 0,-0.167969 0,-0.347657 0.0117,-0.53125 0.008,-0.175781 0.0391,-0.335938 0.0937,-0.480469 0.0508,-0.136719 0.1289,-0.246094 0.23828,-0.332031 0.10156,-0.08203 0.25781,-0.125 0.46875,-0.125 l 0.66797,0 c 0.19922,0 0.41406,0.0039 0.63672,0.01172 0.22656,0.0039 0.44531,0.01953 0.65625,0.03516 0.21875,0.02344 0.40234,0.05078 0.5664,0.08203 0.16016,0.03125 0.28516,0.07422 0.36328,0.117187 0.12891,0.07422 0.22266,0.179688 0.28907,0.332032 0.0742,0.164062 0.14453,0.332031 0.20312,0.5 0.0586,0.171875 0.125,0.328125 0.1836,0.457031 0.10156,0.199219 0.23046,0.242187 0.33593,0.242187 0.19532,-0.02344 0.23047,-0.277343 0.24219,-0.363281 0.0273,-0.179687 0.0391,-0.375 0.0391,-0.578125 0,-0.183594 0.004,-0.335937 0.008,-0.460937 0.008,-0.128907 0.008,-0.234375 0.008,-0.328125 0,-0.179688 -0.0234,-0.371094 -0.0625,-0.585938 -0.0195,-0.07813 -0.0859,-0.183594 -0.27344,-0.21875 -0.11328,-0.01953 -0.23437,-0.03125 -0.34375,-0.03125 l -0.17187,0 c -0.71485,0 -1.40625,0.0078 -2.05079,0.02344 -0.66406,0.01563 -1.35546,0.02344 -2.05468,0.02344 -0.35157,0 -0.70313,-0.0078 -1.04297,-0.02344 -0.32813,-0.01563 -0.67578,-0.02344 -1.03125,-0.02344 -0.0898,0 -0.20313,-0.0039 -0.33203,-0.0078 -0.13282,-0.0039 -0.26172,0 -0.38672,0.01563 -0.125,0.01953 -0.23047,0.04687 -0.32422,0.08203 -0.12109,0.05078 -0.1875,0.148438 -0.1875,0.277344 0,0.101562 0.043,0.28125 0.3125,0.328125 0.15625,0.02344 0.33203,0.04687 0.53516,0.07422 0.18359,0.02344 0.35937,0.07422 0.51171,0.15625 0.14063,0.07031 0.21485,0.21875 0.23438,0.457031 0.008,0.04297 0.0117,0.08594 0.0117,0.117187 l 0,0.410156 c 0,0.820313 0.004,1.632813 0.0156,2.441407 0.0117,0.785156 0.0156,1.605469 0.0156,2.441406 0,0.253906 0.008,0.546875 0.0156,0.886719 0.008,0.339844 0.0156,0.671875 0.0156,1.003906 0,0.324219 -0.0156,0.621094 -0.0469,0.882812 -0.0273,0.261719 -0.0781,0.445313 -0.14843,0.550782 -0.082,0.117187 -0.19922,0.203125 -0.35157,0.261718 -0.16406,0.0625 -0.33203,0.113282 -0.51172,0.152344 -0.17187,0.04297 -0.32812,0.08203 -0.46093,0.125 -0.21094,0.07031 -0.25,0.183594 -0.25,0.273438 0,0.265625 0.15234,0.324218 0.24609,0.332031 0.11719,0.01172 0.23047,0.01563 0.34375,0.01563 0.15234,0 0.30078,-0.0039 0.44922,-0.01563 0.14453,-0.0078 0.28906,-0.01563 0.42578,-0.01563 l 7.15234,0 c 0.20704,0 0.35938,-0.07422 0.46094,-0.222656 l 0.0117,-0.03125 c 0.0703,-0.320313 0.12891,-0.582032 0.17188,-0.777344 L 143.63281,66 c 0.043,-0.175781 0.0664,-0.277344 0.0664,-0.289062 0.0156,-0.02344 0.0273,-0.0625 0.0586,-0.1875 0.0156,-0.08203 0.0234,-0.125 0.0312,-0.144532 0.0391,-0.09375 0.0508,-0.191406 0.0352,-0.289062 -0.0156,-0.07031 -0.0703,-0.195313 -0.29297,-0.195313"
       id="path4343"
       inkscape:connector-curvature="0" />
    <path
       style="fill:#ffffff;fill-opacity:1;fill-rule:nonzero;stroke:none"
       d="m 156.28125,67.675781 c -0.10547,-0.02344 -0.21484,-0.05859 -0.33984,-0.113281 -0.40625,-0.08594 -0.76954,-0.273438 -1.07813,-0.546875 -0.32031,-0.28125 -0.60937,-0.613281 -0.86328,-0.992187 -0.26563,-0.378907 -0.5,-0.785157 -0.70703,-1.207032 -0.21094,-0.429687 -0.41406,-0.835937 -0.59766,-1.21875 C 152.5,63.210938 152.3125,62.871094 152.125,62.59375 c -0.14453,-0.214844 -0.29688,-0.375 -0.45703,-0.480469 0.21094,-0.105469 0.42578,-0.226562 0.64062,-0.367187 0.27344,-0.175782 0.52344,-0.375 0.7461,-0.605469 0.22265,-0.226563 0.40625,-0.488281 0.54687,-0.773437 0.14453,-0.289063 0.21485,-0.609376 0.21485,-0.941407 0,-0.609375 -0.11719,-1.117187 -0.34766,-1.519531 -0.22656,-0.390625 -0.51563,-0.710938 -0.85938,-0.941406 -0.33984,-0.234375 -0.71093,-0.398438 -1.10937,-0.484375 -0.38281,-0.08984 -0.75391,-0.132813 -1.09375,-0.132813 -0.39453,0 -0.78516,0.0078 -1.16016,0.02344 -0.3789,0.01563 -0.76953,0.01953 -1.16015,0.01953 l -1.31641,0 c -0.10937,0 -0.21875,-0.0039 -0.33594,-0.01172 -0.24218,-0.01953 -0.48047,-0.02344 -0.6914,0.02734 -0.0898,0.01953 -0.23438,0.08984 -0.23438,0.339844 0,0.125 0.0664,0.222656 0.1836,0.265625 0.0898,0.03516 0.20312,0.05469 0.33203,0.06641 0.1289,0.0078 0.26562,0.01953 0.40234,0.03125 0.13281,0.0078 0.26563,0.03516 0.37891,0.07813 0.11328,0.03906 0.19922,0.105469 0.26562,0.203125 0.0703,0.09375 0.10547,0.234375 0.10547,0.414063 0,0.84375 -0.008,1.703124 -0.0234,2.558593 -0.0117,0.859375 -0.0234,1.722657 -0.0234,2.5625 l 0,3.121094 c 0,0.191406 -0.0352,0.34375 -0.10547,0.449219 -0.0742,0.109375 -0.16407,0.195312 -0.28125,0.257812 -0.11328,0.0625 -0.23828,0.113282 -0.36719,0.132813 -0.14453,0.02734 -0.27344,0.04687 -0.40234,0.06641 -0.12891,0.02344 -0.23438,0.04687 -0.32032,0.07422 -0.16406,0.05078 -0.1875,0.167968 -0.1875,0.234375 0,0.179687 0.0312,0.277343 0.10157,0.324219 0.0547,0.03906 0.15234,0.05469 0.30468,0.05469 0.31641,0 0.63282,-0.01172 0.94532,-0.04687 0.64062,-0.0625 1.32812,-0.05859 1.98828,0.0078 0.35547,0.03516 0.72656,0.05469 1.10156,0.05469 0.21484,0 0.37109,-0.01563 0.48047,-0.05078 0.082,-0.02344 0.21484,-0.101563 0.21484,-0.34375 0,-0.125 -0.0625,-0.210938 -0.17187,-0.242188 -0.0781,-0.02344 -0.16407,-0.03516 -0.25391,-0.03516 -0.0586,0 -0.0781,-0.0039 -0.0781,-0.0039 l -0.0234,-0.0078 c -0.19922,-0.03906 -0.38672,-0.07031 -0.55078,-0.09375 -0.14844,-0.01953 -0.27735,-0.05469 -0.38672,-0.109375 -0.0977,-0.05078 -0.17578,-0.132812 -0.23047,-0.246093 -0.0625,-0.121094 -0.0898,-0.304688 -0.0898,-0.550782 l 0,-3.121094 c 0,-0.296874 0.0312,-0.402343 0.0547,-0.441406 0.0117,-0.01953 0.0664,-0.07031 0.29297,-0.07031 0.33985,0 0.63281,0.08203 0.86328,0.253906 0.23438,0.171875 0.44532,0.398438 0.625,0.664062 0.1836,0.273438 0.34766,0.582032 0.49219,0.917969 0.14844,0.34375 0.3125,0.679688 0.48047,0.996094 0.30469,0.796875 0.75781,1.484375 1.34375,2.035156 0.58984,0.554688 1.33594,0.914063 2.21094,1.070313 0.0742,0.0078 0.16015,0.01953 0.26562,0.03125 0.0977,0.0078 0.20313,0.01563 0.3086,0.01563 0.26562,0 0.45312,-0.02344 0.57812,-0.06641 l 0.0312,-0.01953 c 0.11328,-0.117187 0.16797,-0.210937 0.16797,-0.296875 0,-0.08203 -0.0391,-0.21875 -0.25,-0.265625 M 151.875,60.53125 c -0.14063,0.292969 -0.33203,0.523438 -0.57813,0.691406 -0.24218,0.164063 -0.53906,0.285156 -0.875,0.347656 -0.35156,0.0625 -0.72656,0.09375 -1.125,0.09375 -0.17187,0 -0.29687,-0.01172 -0.36718,-0.03516 -0.082,-0.02734 -0.10547,-0.07031 -0.11328,-0.09766 -0.0195,-0.05859 -0.0273,-0.136719 -0.0234,-0.230469 0.008,-0.109375 0.008,-0.238281 0.008,-0.390625 0,-0.402344 0.004,-0.859375 0.0156,-1.363281 0.008,-0.5 0.0117,-0.960937 0.0117,-1.363281 l 0,-0.515625 c 0,-0.21875 0.0547,-0.382813 0.14454,-0.492188 0.0664,-0.07031 0.22656,-0.15625 0.6289,-0.15625 0.36328,0 0.70313,0.05078 1,0.152344 0.30078,0.101563 0.5586,0.253906 0.77735,0.449219 0.21875,0.199218 0.39453,0.445312 0.51953,0.734375 0.12109,0.292969 0.1875,0.636719 0.1875,1.023437 0,0.472656 -0.0742,0.855469 -0.21094,1.152344"
       id="path4345"
       inkscape:connector-curvature="0" />
    <path
       style="fill:#ffffff;fill-opacity:1;fill-rule:nonzero;stroke:none"
       d="m 163.44531,61.757812 c -0.34375,-0.222656 -0.75,-0.441406 -1.19922,-0.660156 -0.44531,-0.207031 -0.87109,-0.4375 -1.26953,-0.683594 -0.39453,-0.238281 -0.73437,-0.519531 -1.00781,-0.828124 -0.25391,-0.300782 -0.39063,-0.65625 -0.39063,-1.054688 0,-0.257812 0.0469,-0.492188 0.14454,-0.703125 0.0937,-0.210937 0.22656,-0.386719 0.39062,-0.53125 0.16797,-0.140625 0.36328,-0.253906 0.58984,-0.328125 0.22657,-0.07813 0.46875,-0.117188 0.72266,-0.117188 0.30469,0 0.60938,0.101563 0.90625,0.300782 0.29297,0.203125 0.51953,0.488281 0.67969,0.867187 0.0547,0.08984 0.10156,0.199219 0.125,0.328125 0.0312,0.136719 0.0625,0.269532 0.0937,0.394532 0.0312,0.128906 0.0703,0.246093 0.11328,0.34375 0.0937,0.214843 0.22656,0.183593 0.31641,0.199218 0.10546,0.03125 0.23046,0.03516 0.3164,-0.05078 0.043,-0.04297 0.0742,-0.113281 0.10547,-0.242187 0.043,-0.527344 0.0547,-1.058594 0.043,-1.582032 0,-0.109375 0.008,-0.238281 0.0234,-0.382812 0.0156,-0.15625 0.0195,-0.304688 0.0195,-0.449219 0,-0.148437 -0.008,-0.273437 -0.0273,-0.382813 -0.043,-0.195312 -0.16015,-0.226562 -0.23046,-0.226562 -0.17969,0 -0.31641,0.05469 -0.41407,0.167969 -0.0781,0.101562 -0.14843,0.203125 -0.19531,0.308593 -0.0469,0.09375 -0.0977,0.164063 -0.14844,0.210938 -0.0117,0.01563 -0.0352,0.03125 -0.13281,-0.02344 -0.18359,-0.113281 -0.41406,-0.222656 -0.67969,-0.335937 -0.27343,-0.117187 -0.51953,-0.175781 -0.74609,-0.175781 -0.46484,0 -0.91016,0.07031 -1.32813,0.207031 -0.41406,0.140625 -0.78906,0.34375 -1.09765,0.609375 -0.3125,0.265625 -0.5625,0.597656 -0.74219,0.984375 -0.18359,0.390625 -0.27344,0.84375 -0.27344,1.335937 0,0.5625 0.13282,1.042969 0.40235,1.425782 0.25781,0.375 0.59375,0.707031 0.98437,0.992187 0.38672,0.28125 0.8086,0.535157 1.26563,0.757813 0.44531,0.222656 0.86328,0.457031 1.23828,0.707031 0.37109,0.246094 0.6875,0.527344 0.9414,0.84375 0.23829,0.304687 0.36329,0.6875 0.36329,1.140625 0,0.308594 -0.0469,0.585938 -0.14844,0.824219 -0.10547,0.242187 -0.25391,0.453125 -0.42969,0.625 -0.18359,0.167969 -0.39844,0.304687 -0.64453,0.394531 -0.23828,0.08984 -0.51172,0.136719 -0.80469,0.136719 -0.39844,0 -0.78125,-0.105469 -1.14844,-0.3125 -0.37109,-0.207031 -0.64453,-0.5 -0.8125,-0.878907 -0.0508,-0.09375 -0.0937,-0.207031 -0.125,-0.34375 -0.0312,-0.140624 -0.0703,-0.277343 -0.0977,-0.398437 -0.0312,-0.132813 -0.0703,-0.246094 -0.11328,-0.339844 -0.0703,-0.148437 -0.17188,-0.179687 -0.25,-0.179687 -0.0273,0 -0.0508,-0.0039 -0.0703,-0.01172 -0.10546,-0.02734 -0.22656,-0.03125 -0.3164,0.05078 -0.0508,0.04297 -0.0859,0.125 -0.10156,0.242188 -0.0195,0.257812 -0.0312,0.5 -0.0352,0.71875 -0.008,0.210937 -0.008,0.449218 -0.008,0.714844 0,0.105468 -0.008,0.246093 -0.0234,0.433593 -0.0156,0.1875 -0.0234,0.363281 -0.0234,0.535157 0,0.175781 0.0117,0.332031 0.0312,0.460937 0.0352,0.234375 0.16016,0.269531 0.22656,0.269531 0.1836,0 0.3086,-0.03906 0.39844,-0.125 0.0781,-0.07031 0.14453,-0.152344 0.20313,-0.246094 0.043,-0.08203 0.0937,-0.152343 0.14843,-0.21875 0.0742,-0.08984 0.29688,-0.08203 0.51563,0.0078 0.12109,0.05078 0.26172,0.101563 0.41016,0.160156 0.14062,0.05469 0.30078,0.105469 0.47656,0.160157 0.17187,0.05469 0.36719,0.07812 0.5664,0.07812 0.52735,-0.0078 1.02735,-0.08984 1.47266,-0.238281 0.44922,-0.152343 0.84375,-0.375 1.16797,-0.664062 0.32812,-0.289063 0.58594,-0.652344 0.76953,-1.085938 0.17969,-0.429687 0.26953,-0.933593 0.26953,-1.5 -0.008,-0.527343 -0.13672,-1.03125 -0.3789,-1.496093 -0.2461,-0.46875 -0.58985,-0.847657 -1.02735,-1.140626"
       id="path4347"
       inkscape:connector-curvature="0" />
    <path
       style="fill:#ffffff;fill-opacity:1;fill-rule:nonzero;stroke:none"
       d="m 170.29297,59.988281 c 0.0156,-0.621093 0.0195,-1.257812 0.0195,-1.898437 0,-0.175782 0.008,-0.332032 0.0156,-0.460938 0.0156,-0.113281 0.0469,-0.203125 0.10547,-0.28125 0.0586,-0.07422 0.15235,-0.132812 0.28516,-0.167968 0.14062,-0.03516 0.34766,-0.05469 0.60547,-0.05469 0.15625,0 0.28906,-0.01563 0.40234,-0.05078 0.082,-0.02344 0.22656,-0.101563 0.22656,-0.34375 0,-0.04297 -0.0117,-0.09375 -0.0391,-0.160157 -0.0273,-0.06641 -0.0508,-0.105468 -0.082,-0.136718 l -0.0234,-0.02344 -1.35547,0 c -0.14843,0 -0.30078,0.0039 -0.44921,0.02344 -0.15625,0.01172 -0.30079,0.01953 -0.4336,0.01953 -0.29297,0 -0.58594,-0.01172 -0.8789,-0.04297 -0.28516,-0.03125 -0.58985,-0.04687 -0.89454,-0.04687 l -0.16796,0 c -0.0859,0 -0.17579,0.0078 -0.27735,0.02344 -0.14062,0.02344 -0.22265,0.121093 -0.22265,0.265625 0,0.226562 0.10937,0.320312 0.20312,0.359375 0.10547,0.04297 0.23438,0.07422 0.38281,0.08203 0.14063,0.01172 0.28516,0.02734 0.4336,0.05078 0.1289,0.02344 0.24609,0.08594 0.33203,0.171875 0.0352,0.04297 0.082,0.148438 0.12109,0.382813 0.0312,0.199219 0.043,0.378906 0.043,0.542969 l 0,0.289062 c 0,0.253906 -0.004,0.503906 -0.004,0.757812 -0.008,0.253907 -0.0117,0.507813 -0.0117,0.773438 l -0.0117,5.304688 0,0.316406 c 0,0.183594 -0.0156,0.382812 -0.0391,0.589844 -0.0234,0.179687 -0.0742,0.304687 -0.16406,0.371093 -0.0859,0.07813 -0.19922,0.136719 -0.33594,0.167969 -0.15234,0.03516 -0.28906,0.06641 -0.42578,0.08984 -0.13281,0.02734 -0.25781,0.05859 -0.37109,0.09375 -0.18359,0.07031 -0.21094,0.203125 -0.21094,0.277344 0,0.160156 0.0703,0.273437 0.20313,0.324218 0.10547,0.03906 0.21484,0.05859 0.32812,0.05859 l 0.21485,0 c 0.30859,0 0.58984,-0.01953 0.82812,-0.05469 0.44922,-0.06641 1.05859,-0.06641 1.64453,-0.0078 0.44141,0.04687 0.8711,0.07031 1.3125,0.02344 0.19531,-0.01953 0.30469,-0.144532 0.30469,-0.34375 0,-0.07422 -0.0312,-0.214844 -0.23438,-0.269532 -0.11718,-0.03125 -0.25,-0.0625 -0.39453,-0.08203 -0.14843,-0.03125 -0.29687,-0.05469 -0.45703,-0.08594 -0.13672,-0.02734 -0.24609,-0.07422 -0.32031,-0.144532 -0.10547,-0.09766 -0.17188,-0.234375 -0.19141,-0.414062 -0.0234,-0.195313 -0.0391,-0.375 -0.0391,-0.53125 l 0,-3.867188 c 0,-0.644531 0.008,-1.28125 0.0234,-1.890625"
       id="path4349"
       inkscape:connector-curvature="0" />
    <path
       style="fill:#ffffff;fill-opacity:1;fill-rule:nonzero;stroke:none"
       d="m 183.79297,55.816406 c -0.0586,0 -0.14453,0.02734 -0.21875,0.144532 -0.0352,0.0625 -0.082,0.132812 -0.14453,0.210937 -0.0508,0.07422 -0.11719,0.144531 -0.19532,0.214844 -0.0664,0.05859 -0.15625,0.09766 -0.25781,0.113281 -0.14844,0.01953 -0.30078,0.03125 -0.44922,0.03516 -0.66015,0.02344 -1.27343,0.01563 -1.86718,0.02344 -1,0.02344 -2.17188,0.01953 -3.25782,-0.0078 -0.61328,-0.01563 -1.23437,-0.03516 -1.86328,-0.06641 -0.1289,-0.0078 -0.23437,-0.03906 -0.30859,-0.08984 -0.0742,-0.05469 -0.13672,-0.113281 -0.17969,-0.171875 -0.0508,-0.0625 -0.0977,-0.117187 -0.12891,-0.167968 -0.0664,-0.09375 -0.14843,-0.113282 -0.20312,-0.113282 -0.15625,0 -0.28125,0.03906 -0.36719,0.121094 -0.082,0.07422 -0.14453,0.171875 -0.18359,0.289062 -0.0391,0.105469 -0.0625,0.226563 -0.0781,0.363282 l 0,0.05078 c -0.008,0.105469 -0.0195,0.207031 -0.0273,0.300781 -0.0508,0.523438 -0.11328,0.925782 -0.19141,1.207032 -0.0859,0.292968 -0.12109,0.53125 -0.12109,0.714843 0,0.140625 0.0312,0.238281 0.10547,0.296875 0.0664,0.05469 0.16015,0.08203 0.28515,0.08203 0.082,0 0.15625,-0.07031 0.26954,-0.257813 0.0937,-0.148437 0.17968,-0.3125 0.26562,-0.480469 0.0937,-0.179687 0.17969,-0.347656 0.25781,-0.511718 0.0937,-0.1875 0.15625,-0.261719 0.17969,-0.292969 0.19141,-0.179688 0.39063,-0.300781 0.59375,-0.359375 0.20703,-0.06641 0.42578,-0.09766 0.64844,-0.09766 l 0.9414,0 c 0.23438,0 0.46094,0.01953 0.66407,0.05469 0.1875,0.02734 0.26172,0.07813 0.27343,0.113281 0.008,0.03906 0.0117,0.128906 0.0195,0.265625 0.004,0.132813 0.008,0.226563 0.008,0.277344 l 0,7.332031 c 0,0.277344 -0.0195,0.515625 -0.0469,0.699219 -0.0312,0.175781 -0.082,0.324219 -0.16406,0.4375 -0.082,0.109375 -0.20312,0.195313 -0.36328,0.265625 -0.16406,0.06641 -0.39063,0.113281 -0.6875,0.144531 -0.0273,0.0078 -0.0703,0.01563 -0.17578,0.01563 -0.11328,0 -0.22266,0.01563 -0.32031,0.05469 -0.0937,0.03906 -0.19922,0.121094 -0.19922,0.324218 0,0.222657 0.14453,0.265626 0.21093,0.273438 0.0898,0.01172 0.17969,0.01563 0.26172,0.01563 0.36719,0 0.73438,-0.01172 1.08985,-0.03906 0.72656,-0.05078 1.55468,-0.04687 2.27734,0 0.39844,0.02734 0.80469,0.03906 1.20703,0.03906 0.125,0 0.23828,-0.0039 0.32031,-0.01563 0.1211,-0.01953 0.1836,-0.136719 0.1836,-0.347656 0,-0.101563 -0.043,-0.269532 -0.34766,-0.304688 l -0.59765,-0.07031 c -0.21485,-0.02344 -0.41797,-0.08203 -0.60547,-0.171875 -0.17578,-0.08594 -0.28516,-0.246094 -0.32813,-0.503907 -0.0312,-0.152343 -0.0469,-0.3125 -0.0508,-0.46875 -0.008,-0.160156 -0.0117,-0.324218 -0.0117,-0.480468 0.0195,-0.894532 0.0195,-1.796875 -0.004,-2.671875 -0.0273,-0.882813 -0.0273,-1.78125 -0.008,-2.664063 l 0.0273,-1.851562 c 0,-0.222656 0.0117,-0.390625 0.0391,-0.5 0.0273,-0.125 0.0586,-0.179688 0.082,-0.195313 0.0195,-0.02344 0.043,-0.03516 0.082,-0.03516 l 0.004,0 c 0.1289,0.01172 0.27344,0.01172 0.50781,0 0.28125,-0.01172 0.66406,-0.01172 1.03906,0.01563 0.23438,0.01563 0.44141,0.03906 0.63672,0.07422 0.19531,0.03516 0.35938,0.08594 0.5,0.15625 0.125,0.06641 0.21094,0.148437 0.25,0.25 0.0547,0.136719 0.082,0.285156 0.0664,0.445312 -0.004,0.167969 -0.0195,0.328125 -0.0352,0.472657 -0.0156,0.15625 -0.0117,0.289062 0.0117,0.390624 0.0156,0.08203 0.0781,0.21875 0.30078,0.21875 0.19531,0 0.33985,-0.136718 0.41797,-0.398437 0.0664,-0.226563 0.11328,-0.496094 0.15234,-0.804687 0.0352,-0.300782 0.0625,-0.617188 0.0898,-0.9375 0.0273,-0.304688 0.0703,-0.554688 0.14062,-0.738282 0.0469,-0.132812 0.0469,-0.273437 -0.008,-0.429687 -0.0391,-0.113281 -0.14453,-0.257813 -0.41406,-0.257813"
       id="path4351"
       inkscape:connector-curvature="0" />
    <path
       style="fill:#ffffff;fill-opacity:1;fill-rule:nonzero;stroke:none"
       d="m 197.53125,56.460938 c -0.12891,-0.05469 -0.27344,-0.08203 -0.42578,-0.08203 -0.26172,0 -0.52735,0.01563 -0.79297,0.05469 -0.46875,0.0625 -0.97656,0.06641 -1.45313,0.0078 -0.23437,-0.03125 -0.46875,-0.05078 -0.70703,-0.05078 -0.10937,0 -0.19531,0.01172 -0.25781,0.02734 -0.10156,0.02734 -0.15625,0.128906 -0.15625,0.292969 0,0.1875 0.10156,0.3125 0.28906,0.34375 0.14844,0.02734 0.3086,0.04687 0.47266,0.05469 0.16797,0.0078 0.3125,0.03516 0.44531,0.08203 0.0664,0.01953 0.14453,0.06641 0.14844,0.230469 -0.004,0.0078 -0.0234,0.0625 -0.17188,0.304687 -0.11718,0.183594 -0.26562,0.414063 -0.46093,0.691407 -0.1836,0.273437 -0.39063,0.570312 -0.61328,0.886719 -0.23047,0.332031 -0.44141,0.625 -0.64063,0.890624 -0.20703,0.277344 -0.39062,0.523438 -0.54687,0.726563 -0.15235,0.203125 -0.26172,0.335937 -0.31641,0.394531 -0.0234,0.01953 -0.0469,0.04297 -0.0742,0.07031 -0.0195,0.01172 -0.0312,0.01953 -0.0391,0.02734 -0.0195,-0.01172 -0.0312,-0.02344 -0.043,-0.03516 -0.0273,-0.03516 -0.0547,-0.07422 -0.0859,-0.117187 -0.26172,-0.324219 -0.51953,-0.660157 -0.7539,-1.003907 -0.23829,-0.347656 -0.48438,-0.699218 -0.72657,-1.054687 -0.0977,-0.121094 -0.20703,-0.269531 -0.34375,-0.449219 -0.13281,-0.167968 -0.26172,-0.347656 -0.39062,-0.539062 -0.12891,-0.191406 -0.23438,-0.363282 -0.33203,-0.53125 -0.0859,-0.15625 -0.12891,-0.285156 -0.12891,-0.378906 0,-0.09766 0.0391,-0.140626 0.13281,-0.160157 0.14063,-0.02344 0.28907,-0.03906 0.45313,-0.04297 0.17187,-0.0039 0.32422,-0.01953 0.47265,-0.04687 0.1875,-0.03125 0.28907,-0.160157 0.28907,-0.355469 0,-0.08594 -0.0547,-0.164063 -0.15235,-0.230469 -0.0977,-0.05859 -0.17578,-0.08984 -0.24609,-0.08984 -0.38281,0 -0.78516,0.01563 -1.17969,0.05078 -0.65234,0.0625 -1.33594,0.08984 -1.96875,-0.0078 -0.28125,-0.03906 -0.5625,-0.05859 -0.84765,-0.05859 -0.082,0 -0.16016,0.0039 -0.24219,0.01563 -0.0586,0.0078 -0.1875,0.05078 -0.1875,0.257813 0,0.152343 0.082,0.261719 0.23047,0.308593 0.10937,0.03516 0.24609,0.07031 0.41406,0.109376 0.14844,0.03125 0.30078,0.08203 0.47656,0.152343 0.15235,0.06641 0.28516,0.171875 0.38672,0.320313 0.54297,0.785156 1.08984,1.566406 1.625,2.308594 0.55078,0.769531 1.10156,1.542968 1.62891,2.3125 0.11328,0.15625 0.16797,0.328124 0.17968,0.523437 0.0117,0.222656 0.0156,0.484375 0.0156,0.785156 l 0,1.332031 c 0,0.183594 0,0.371094 -0.004,0.574219 -0.004,0.214844 -0.0195,0.398438 -0.0352,0.5625 -0.0117,0.171875 -0.0312,0.328125 -0.0664,0.457031 -0.0234,0.125 -0.0625,0.210938 -0.10156,0.253907 -0.0898,0.105469 -0.22266,0.171875 -0.38672,0.199219 -0.19141,0.03125 -0.36719,0.05469 -0.54688,0.08203 -0.17968,0.02734 -0.33984,0.07031 -0.45703,0.128906 -0.0898,0.04687 -0.22265,0.15625 -0.14062,0.410156 0.004,0.08594 0.0508,0.144531 0.1289,0.167969 0.0508,0.01172 0.0898,0.01563 0.125,0.01563 0.36719,0 0.73438,-0.01563 1.09375,-0.05469 0.73047,-0.07031 1.50782,-0.0625 2.25391,0 0.39844,0.03906 0.80859,0.05469 1.19922,0.05469 0.18359,0 0.26953,-0.08203 0.30859,-0.152344 0.0508,-0.08203 0.0703,-0.179687 0.0703,-0.289062 l -0.004,-0.03516 c -0.0469,-0.128906 -0.14844,-0.214843 -0.27734,-0.246093 -0.10547,-0.02734 -0.22657,-0.03906 -0.375,-0.04687 -0.13672,-0.0039 -0.27735,-0.01172 -0.42188,-0.02344 -0.12891,-0.0078 -0.25391,-0.03906 -0.36328,-0.09375 -0.10547,-0.05469 -0.19141,-0.140625 -0.26563,-0.273437 -0.0703,-0.132813 -0.10937,-0.328125 -0.10937,-0.582031 l 0,-3.015626 c 0,-0.207031 0.0586,-0.429687 0.16797,-0.660156 0.10937,-0.230468 0.2539,-0.46875 0.42578,-0.703125 0.17969,-0.234375 0.36328,-0.46875 0.55859,-0.691406 0.21094,-0.246094 0.38672,-0.457031 0.54297,-0.648437 0.35547,-0.453126 0.70313,-0.910157 1.05078,-1.363282 0.33594,-0.441406 0.69922,-0.886718 1.08203,-1.332031 0.0977,-0.117187 0.21094,-0.199219 0.32813,-0.242187 0.12109,-0.05078 0.24609,-0.08594 0.35937,-0.105469 0.1211,-0.01953 0.23438,-0.03906 0.33594,-0.07031 0.12891,-0.03125 0.22266,-0.09766 0.27344,-0.207031 0.0469,-0.09375 0.0586,-0.175781 0.0273,-0.25 -0.0273,-0.0625 -0.0742,-0.113281 -0.15234,-0.148437"
       id="path4353"
       inkscape:connector-curvature="0" />
    <path
       style="fill:#ffffff;fill-opacity:1;fill-rule:nonzero;stroke:none"
       d="m 209.375,60.414062 c -0.39063,-0.367187 -0.85547,-0.65625 -1.37891,-0.855468 C 207.47656,59.355469 206.91797,59.25 206.33203,59.25 c -0.60547,0 -1.16797,0.109375 -1.68359,0.328125 -0.50782,0.21875 -0.96094,0.527344 -1.33594,0.910156 -0.37109,0.386719 -0.66406,0.847657 -0.87109,1.375 -0.20704,0.523438 -0.3125,1.097657 -0.3125,1.710938 0,0.613281 0.10156,1.183593 0.30468,1.699219 0.20313,0.515624 0.49219,0.96875 0.85547,1.34375 0.36328,0.378906 0.80469,0.679687 1.3125,0.890624 0.50391,0.210938 1.07031,0.316407 1.66797,0.316407 0.60547,0 1.17969,-0.117188 1.71484,-0.347657 0.53516,-0.238281 1.00391,-0.554687 1.39844,-0.949218 0.39844,-0.398438 0.71094,-0.867188 0.9375,-1.390625 0.22266,-0.53125 0.33985,-1.097657 0.33985,-1.691407 0,-0.621093 -0.11719,-1.195312 -0.34766,-1.707031 -0.23047,-0.511719 -0.54297,-0.957031 -0.9375,-1.324219 m -0.15625,3.847657 c -0.008,0.445312 -0.082,0.875 -0.22266,1.273437 -0.13672,0.394532 -0.36328,0.742188 -0.66406,1.035156 -0.29687,0.285157 -0.71094,0.476563 -1.22656,0.570313 -0.20703,0.03516 -0.40235,0.05469 -0.58203,0.05469 -0.29688,0 -0.57422,-0.05078 -0.82032,-0.148437 -0.40234,-0.164063 -0.74609,-0.402344 -1.02343,-0.71875 -0.28516,-0.320313 -0.51563,-0.691406 -0.6875,-1.109375 -0.17578,-0.421875 -0.30078,-0.847656 -0.36719,-1.269531 -0.0859,-0.40625 -0.12109,-0.835938 -0.11719,-1.273438 0,-0.433593 0.0742,-0.851562 0.21094,-1.230469 0.14062,-0.375 0.35937,-0.710937 0.66016,-0.988281 0.29687,-0.277343 0.71484,-0.46875 1.23828,-0.566406 0.20312,-0.03516 0.39062,-0.05469 0.57031,-0.05469 0.26953,0 0.52344,0.04297 0.75781,0.121093 0.39453,0.136719 0.73828,0.355469 1.03125,0.644531 0.29688,0.296876 0.53906,0.652344 0.73047,1.058594 0.19141,0.414063 0.32813,0.855469 0.41406,1.308594 0.0703,0.40625 0.10547,0.839844 0.0977,1.292969"
       id="path4355"
       inkscape:connector-curvature="0" />
    <path
       style="fill:#ffffff;fill-opacity:1;fill-rule:nonzero;stroke:none"
       d="m 217.11328,59.453125 c -0.0117,0 -0.043,0 -0.082,0 -0.0469,-0.0039 -0.0977,-0.0078 -0.15625,-0.0078 l -0.24219,0 c -0.33594,0 -0.66406,0.0039 -0.99219,0.0078 -0.32812,0 -0.66015,0 -0.99218,0 l -1.69141,0 c -0.0586,0 -0.16406,0 -0.32031,0 -0.16016,-0.0039 -0.32031,-0.0078 -0.5,-0.0078 -0.1875,0 -0.33594,0.0039 -0.44531,0.0078 -0.11329,0 -0.19922,0.01563 -0.26563,0.03516 -0.0781,0.02734 -0.12891,0.06641 -0.15625,0.117188 -0.0195,0.04297 -0.0312,0.09375 -0.0312,0.148437 0,0.109375 0.0547,0.183594 0.15234,0.214844 0.0664,0.02344 0.14454,0.03125 0.23438,0.03906 0.0859,0.0039 0.17578,0.0078 0.27344,0.01563 0.0859,0.0078 0.16406,0.02734 0.23437,0.0625 0.0664,0.03125 0.12891,0.08594 0.17578,0.164062 0.0508,0.07422 0.0781,0.191406 0.0781,0.347656 0,0.695313 0,1.398438 0.0156,2.152344 0.008,0.675781 0.0156,1.378906 0.0156,2.144531 l 0,0.402344 c 0,0.132813 -0.004,0.277344 -0.008,0.429687 -0.004,0.160157 -0.008,0.308594 -0.0156,0.457032 -0.008,0.148437 -0.0156,0.277344 -0.0352,0.390625 -0.0156,0.136719 -0.0312,0.191406 -0.043,0.21875 -0.0508,0.117187 -0.12891,0.179687 -0.26954,0.207031 -0.043,0.01172 -0.0977,0.02344 -0.1875,0.03516 -0.0898,0.01172 -0.18359,0.02344 -0.26953,0.03906 -0.0977,0.01563 -0.1875,0.04297 -0.25781,0.07813 -0.13281,0.0625 -0.14844,0.167968 -0.14844,0.21875 0,0.128906 0.0781,0.214844 0.20313,0.230468 0.082,0.01172 0.15625,0.01563 0.21484,0.01563 0.21094,0 0.42188,-0.01172 0.6211,-0.03906 0.4375,-0.05469 0.9375,-0.04297 1.40234,0 0.26953,0.02734 0.53906,0.03906 0.8125,0.03906 l 0.10547,0 c 0.0898,0 0.17187,-0.01563 0.25,-0.04297 0.10547,-0.03906 0.16406,-0.117188 0.16406,-0.222657 0,-0.148437 -0.0781,-0.25 -0.23437,-0.28125 -0.11329,-0.02734 -0.2461,-0.04687 -0.39454,-0.0625 -0.13671,-0.01562 -0.27734,-0.04297 -0.41015,-0.08594 -0.11719,-0.03516 -0.20313,-0.109375 -0.26172,-0.234375 -0.004,0 -0.008,-0.01953 -0.0117,-0.08594 -0.004,-0.0625 -0.0117,-0.140624 -0.0156,-0.226562 -0.004,-0.07813 -0.0117,-0.160156 -0.0117,-0.246094 l 0,-0.480468 c 0,-0.324219 0.008,-0.648438 0.0117,-0.96875 0.004,-0.320313 0.008,-0.644532 0.008,-0.972657 0,-0.05469 0.0195,-0.07422 0.0391,-0.08984 0.043,-0.02734 0.10156,-0.04297 0.16406,-0.05469 0.0664,-0.0078 0.14453,-0.01172 0.21485,-0.0078 0.082,0 0.14843,0.0039 0.19922,0.0039 l 0.28906,0 c 0.17187,0 0.35547,0.0078 0.55859,0.01563 0.19531,0.01172 0.34375,0.03516 0.4336,0.06641 0.14062,0.03906 0.23828,0.109375 0.29687,0.207031 0.0703,0.121094 0.125,0.242188 0.15625,0.359375 l 0.0977,0.34375 c 0.0547,0.191407 0.17578,0.21875 0.24218,0.21875 0.10547,0 0.15625,-0.05078 0.19141,-0.09375 0.0312,-0.04687 0.0586,-0.105469 0.0703,-0.171875 0.0117,-0.06641 0.0156,-0.128906 0.0117,-0.1875 -0.004,-0.05078 -0.004,-0.101562 -0.004,-0.140625 0,-0.164062 -0.008,-0.324219 -0.0156,-0.476562 -0.0156,-0.144531 -0.0195,-0.292969 -0.0195,-0.464844 0,-0.15625 0,-0.3125 0.008,-0.460937 0.0117,-0.15625 0.0156,-0.3125 0.0156,-0.476563 0,-0.04297 -0.004,-0.101563 -0.0234,-0.164063 -0.0195,-0.132812 -0.10547,-0.179687 -0.17969,-0.179687 -0.15234,0 -0.22656,0.07813 -0.26562,0.140625 -0.0391,0.07031 -0.0742,0.148438 -0.0977,0.25 -0.0195,0.08203 -0.0469,0.175781 -0.082,0.273438 -0.0273,0.08984 -0.0703,0.164062 -0.13281,0.226562 -0.043,0.03906 -0.10547,0.07422 -0.1875,0.09766 -0.0898,0.02344 -0.19141,0.05078 -0.32032,0.06641 -0.125,0.01953 -0.2539,0.02734 -0.39062,0.03125 -0.13672,0.0039 -0.26563,0.0078 -0.39063,0.0078 l -0.39062,0 c -0.0859,0 -0.16016,0 -0.22656,0.0039 l -0.0312,0 c -0.0508,0 -0.0898,-0.0039 -0.125,-0.01563 -0.0312,-0.01172 -0.0547,-0.03516 -0.0781,-0.07031 -0.0117,-0.02344 -0.0352,-0.07813 -0.0352,-0.210938 0,-0.324218 0,-0.652344 -0.004,-0.980468 -0.008,-0.328126 -0.008,-0.652344 -0.008,-0.980469 0,-0.140625 0.0117,-0.277344 0.0273,-0.394531 0.0117,-0.101563 0.0742,-0.1875 0.17578,-0.257813 0.0469,-0.02734 0.13672,-0.0625 0.33203,-0.08594 0.17188,-0.01953 0.32422,-0.03125 0.46094,-0.03125 l 0.24219,0 c 0.082,0 0.18359,0.0039 0.3164,0.0078 0.13672,0.0039 0.27344,0.0078 0.41407,0.01953 0.14062,0.01172 0.27734,0.02344 0.40234,0.03906 0.125,0.01172 0.21875,0.03125 0.28516,0.05859 0.13672,0.05078 0.23047,0.128906 0.28125,0.242187 0.0547,0.125 0.10156,0.253906 0.125,0.382813 0.0234,0.136718 0.0547,0.257812 0.0859,0.359374 0.0391,0.144532 0.14063,0.222657 0.28907,0.222657 0.0937,0 0.14453,-0.04687 0.17968,-0.08203 0.0273,-0.04297 0.0469,-0.09375 0.0586,-0.148438 0.008,-0.05078 0.0156,-0.101562 0.0156,-0.15625 l 0,-0.144531 c 0,-0.05469 0,-0.152344 0,-0.289063 0.004,-0.140625 0.004,-0.28125 0,-0.425781 0,-0.144531 -0.0117,-0.277344 -0.0273,-0.390625 -0.0117,-0.109375 -0.043,-0.238281 -0.16797,-0.265625"
       id="path4357"
       inkscape:connector-curvature="0" />
    <path
       style="fill:#ffffff;fill-opacity:1;fill-rule:nonzero;stroke:none"
       d="m 233.19922,57.242188 c 0.0273,-0.304688 0.0742,-0.554688 0.14062,-0.742188 0.0469,-0.128906 0.043,-0.269531 -0.008,-0.421875 -0.0391,-0.121094 -0.14453,-0.261719 -0.41406,-0.261719 -0.0586,0 -0.14453,0.02734 -0.21485,0.144532 -0.0391,0.0625 -0.0898,0.132812 -0.14453,0.210937 -0.0586,0.07422 -0.125,0.144531 -0.19922,0.214844 -0.0703,0.05859 -0.15625,0.09766 -0.25781,0.113281 -0.14844,0.01953 -0.30078,0.03125 -0.44922,0.03516 -0.66015,0.02344 -1.27343,0.01172 -1.86328,0.02344 -1.0039,0.02734 -2.17187,0.02344 -3.26562,-0.0078 -0.60938,-0.01172 -1.23047,-0.03516 -1.85938,-0.06641 -0.13281,-0.0078 -0.23437,-0.03906 -0.30859,-0.08984 -0.0742,-0.05469 -0.14063,-0.113281 -0.17969,-0.167969 -0.0547,-0.06641 -0.0977,-0.121093 -0.12891,-0.171874 -0.0703,-0.09766 -0.15234,-0.113282 -0.20312,-0.113282 -0.15625,0 -0.28125,0.03906 -0.36719,0.121094 -0.082,0.07813 -0.14453,0.171875 -0.18359,0.285156 -0.0391,0.109375 -0.0664,0.230469 -0.0781,0.367188 -0.008,0.125 -0.0195,0.242187 -0.0273,0.351562 -0.0469,0.519532 -0.11328,0.925782 -0.19531,1.207032 -0.082,0.296874 -0.1211,0.53125 -0.1211,0.714843 0,0.140625 0.0352,0.242188 0.10938,0.296875 0.0664,0.05469 0.16015,0.08203 0.28515,0.08203 0.0781,0 0.15625,-0.06641 0.26954,-0.257813 0.0898,-0.148437 0.17968,-0.3125 0.26562,-0.480469 0.0937,-0.179687 0.17969,-0.347656 0.25781,-0.507812 0.0977,-0.191406 0.15235,-0.265625 0.17969,-0.296875 0.19141,-0.179688 0.38672,-0.296875 0.59375,-0.363281 0.20703,-0.0625 0.42188,-0.09375 0.64453,-0.09375 l 0.94141,0 c 0.23828,0 0.46094,0.01562 0.66797,0.05078 0.24218,0.03906 0.26562,0.109375 0.26562,0.117187 0.0156,0.05078 0.0195,0.167969 0.0273,0.265625 0.004,0.132813 0.008,0.226563 0.008,0.277344 l 0,7.332031 c 0,0.277344 -0.0156,0.515625 -0.0469,0.699219 -0.0234,0.175781 -0.082,0.324219 -0.16797,0.4375 -0.0781,0.109375 -0.19921,0.199219 -0.35937,0.265625 -0.16406,0.0625 -0.39063,0.113281 -0.69141,0.144531 -0.0234,0.0078 -0.0703,0.01172 -0.17187,0.01172 -0.11719,0 -0.22266,0.01953 -0.32422,0.05859 -0.0898,0.03906 -0.19141,0.125 -0.19141,0.324218 0,0.222657 0.14453,0.265626 0.20703,0.273438 0.0898,0.0078 0.17969,0.01563 0.25782,0.01563 0.36718,0 0.73437,-0.01172 1.08984,-0.03906 0.72266,-0.05078 1.55859,-0.04687 2.27734,0 0.39844,0.02734 0.8086,0.03906 1.21485,0.03906 0.12109,0 0.23437,-0.0078 0.3125,-0.01563 0.125,-0.01953 0.1875,-0.136719 0.1875,-0.347656 0,-0.101563 -0.043,-0.269532 -0.34766,-0.304688 l -0.59765,-0.07031 c -0.21485,-0.02344 -0.41797,-0.08594 -0.60938,-0.171875 -0.17578,-0.08203 -0.28125,-0.246094 -0.32422,-0.503907 -0.0312,-0.152343 -0.0469,-0.3125 -0.0508,-0.46875 -0.008,-0.160156 -0.0117,-0.324218 -0.0117,-0.480468 0.0195,-0.882813 0.0195,-1.78125 -0.004,-2.671875 -0.0273,-0.867188 -0.0273,-1.765625 -0.008,-2.660157 l 0.0312,-1.855468 c 0,-0.226563 0.008,-0.394532 0.0312,-0.5 0.0312,-0.128906 0.0664,-0.179688 0.082,-0.195313 0.0273,-0.02734 0.0508,-0.03516 0.0898,-0.03516 0.1289,0.01172 0.27734,0.0078 0.51172,0 0.27734,-0.01172 0.65625,-0.01172 1.03906,0.01563 0.22266,0.01563 0.4375,0.03906 0.63281,0.07422 0.19531,0.03516 0.35938,0.08594 0.5,0.15625 0.125,0.06641 0.21094,0.148437 0.25,0.25 0.0547,0.136719 0.0781,0.289062 0.0664,0.441406 -0.008,0.171875 -0.0195,0.328125 -0.0352,0.476563 -0.0156,0.15625 -0.0117,0.289062 0.0117,0.390624 0.0156,0.08203 0.0742,0.21875 0.30078,0.21875 0.13281,0 0.32031,-0.07031 0.41797,-0.398437 0.0625,-0.222656 0.11719,-0.496094 0.15234,-0.808594 0.0352,-0.300781 0.0625,-0.617187 0.0898,-0.933593"
       id="path4359"
       inkscape:connector-curvature="0" />
    <path
       style="fill:#ffffff;fill-opacity:1;fill-rule:nonzero;stroke:none"
       d="m 244.42187,66.949219 c -0.125,-0.03516 -0.26953,-0.07031 -0.42968,-0.09766 -0.16016,-0.03125 -0.31641,-0.07422 -0.48047,-0.132812 -0.14453,-0.05078 -0.25391,-0.160156 -0.33594,-0.332031 -0.51172,-1.066407 -1.00391,-2.152344 -1.46484,-3.226563 C 241.25391,62.101562 240.80469,61 240.375,59.890625 c -0.23438,-0.574219 -0.46875,-1.160156 -0.70703,-1.757813 -0.2461,-0.59375 -0.48438,-1.179687 -0.71485,-1.757812 -0.0273,-0.05469 -0.0586,-0.113281 -0.10546,-0.179688 -0.0547,-0.07812 -0.14063,-0.121093 -0.23829,-0.121093 -0.11328,0 -0.1914,0.03125 -0.23437,0.09375 -0.0352,0.04297 -0.0586,0.101562 -0.0781,0.160156 -0.375,0.921875 -0.7539,1.835937 -1.12109,2.742187 -0.375,0.910157 -0.74609,1.828126 -1.12109,2.746094 l -0.66016,1.613282 c -0.21875,0.527343 -0.42969,1.066406 -0.64453,1.613281 -0.0312,0.07031 -0.0742,0.179687 -0.12891,0.328125 -0.0547,0.144531 -0.11718,0.292968 -0.18359,0.441406 l -0.1875,0.433594 c -0.0664,0.160156 -0.10547,0.222656 -0.12891,0.253906 -0.0781,0.117188 -0.17187,0.199219 -0.27734,0.230469 -0.12109,0.03906 -0.23828,0.07031 -0.35156,0.08984 -0.125,0.02344 -0.23047,0.05469 -0.32032,0.09766 -0.0781,0.03906 -0.17187,0.132812 -0.17187,0.34375 0,0.07813 0.0234,0.152343 0.0664,0.21875 0.0391,0.05078 0.10937,0.117187 0.23828,0.117187 0.23047,0 0.44531,-0.01563 0.64062,-0.04297 0.45313,-0.05859 1.03906,-0.04297 1.59375,0.01562 0.33594,0.03516 0.67188,0.05469 0.99219,0.05469 0.10547,0 0.19922,-0.03516 0.27734,-0.105469 0.0781,-0.07422 0.1211,-0.167969 0.1211,-0.273437 0,-0.195313 -0.11328,-0.328125 -0.31641,-0.371094 -0.15625,-0.03516 -0.33594,-0.0625 -0.55078,-0.08594 -0.1875,-0.01953 -0.35938,-0.05859 -0.51172,-0.117187 -0.0781,-0.02734 -0.18359,-0.09375 -0.18359,-0.320313 0,-0.01953 0.008,-0.09375 0.10156,-0.402343 0.0586,-0.230469 0.14844,-0.519531 0.25781,-0.855469 0.10938,-0.339844 0.25,-0.726562 0.40235,-1.144531 0.14453,-0.394531 0.30859,-0.800781 0.48437,-1.214844 0.11719,-0.02344 0.26172,-0.04297 0.42969,-0.04687 0.40234,-0.02344 0.82422,-0.01953 1.20703,-0.0078 0.19922,0.0039 0.35937,0.0078 0.48047,0.0078 l 0.28906,0 c 0.16016,0 0.32031,0.0039 0.48438,0.01953 0.14453,0.01563 0.25,0.05469 0.3125,0.117188 0.004,0.0039 0.0195,0.02734 0.0625,0.125 0.0352,0.08203 0.082,0.171875 0.1289,0.269531 0.15235,0.363281 0.29688,0.71875 0.4375,1.058594 0.14063,0.34375 0.27344,0.660156 0.38281,0.941406 l 0.28516,0.734375 c 0.0781,0.199219 0.13281,0.351563 0.16406,0.453125 l 0.0312,0.09766 c 0.008,0.02734 0.008,0.05469 0.008,0.07422 0,0.164063 -0.0781,0.207031 -0.14454,0.230469 -0.1289,0.03906 -0.27734,0.0625 -0.45312,0.07031 -0.17969,0.01172 -0.34375,0.02734 -0.48828,0.04297 -0.25,0.03906 -0.29297,0.199219 -0.29297,0.292969 0,0.117187 0.0508,0.21875 0.14062,0.296875 0.0898,0.07422 0.19141,0.113281 0.3086,0.113281 0.35547,0 0.70703,-0.01563 1.05469,-0.04297 0.58203,-0.05469 1.16796,-0.07813 1.76171,0 0.2461,0.02734 0.4961,0.04297 0.74219,0.04297 l 0.16406,0 c 0.10938,0 0.22266,-0.01953 0.33985,-0.05859 0.1914,-0.06641 0.22265,-0.199218 0.22265,-0.277344 0,-0.167968 -0.0859,-0.292968 -0.25,-0.339843 m -4.90625,-5.117188 c -0.0195,0.0039 -0.0312,0.01172 -0.043,0.01563 -0.625,0 -1.10547,0.0039 -1.44922,0.0078 -0.35157,0.0078 -0.60938,0.0078 -0.77735,0.0078 l -0.27343,0 0.44921,-1.070312 c 0.13282,-0.3125 0.2461,-0.597657 0.34766,-0.847657 0.10156,-0.253906 0.19922,-0.496093 0.30469,-0.734374 0.0781,-0.1875 0.17578,-0.402344 0.27344,-0.648438 0.0273,0.05469 0.0547,0.128906 0.0898,0.226562 0.0859,0.246094 0.19141,0.535157 0.30859,0.890626 0.125,0.34375 0.25391,0.71875 0.39453,1.117187 0.12891,0.363281 0.25782,0.710937 0.375,1.035156"
       id="path4361"
       inkscape:connector-curvature="0" />
    <path
       style="fill:#ffffff;fill-opacity:1;fill-rule:nonzero;stroke:none"
       d="m 256.85547,67.675781 c -0.10547,-0.02344 -0.21485,-0.05859 -0.33985,-0.113281 -0.40625,-0.08594 -0.76562,-0.273438 -1.07812,-0.546875 -0.31641,-0.28125 -0.60547,-0.613281 -0.86328,-0.992187 -0.25781,-0.371094 -0.4961,-0.78125 -0.70313,-1.207032 -0.21484,-0.429687 -0.41406,-0.835937 -0.60156,-1.21875 -0.19141,-0.394531 -0.37891,-0.722656 -0.5625,-1.003906 -0.15234,-0.21875 -0.30078,-0.378906 -0.45703,-0.480469 0.20703,-0.105469 0.42187,-0.226562 0.63672,-0.367187 0.26953,-0.171875 0.52344,-0.375 0.75,-0.605469 0.21875,-0.226563 0.40234,-0.488281 0.53906,-0.773437 0.14453,-0.289063 0.21875,-0.605469 0.21875,-0.941407 0,-0.609375 -0.11719,-1.117187 -0.34766,-1.519531 -0.23046,-0.390625 -0.51953,-0.710938 -0.86328,-0.941406 -0.33984,-0.234375 -0.70703,-0.398438 -1.10547,-0.484375 -0.38671,-0.08984 -0.75781,-0.132813 -1.09765,-0.132813 -0.39063,0 -0.78125,0.0078 -1.16016,0.02344 -0.3789,0.01563 -0.76562,0.01953 -1.15625,0.01953 l -1.32031,0 c -0.10938,0 -0.21875,-0.0039 -0.33203,-0.01172 -0.2461,-0.01953 -0.48047,-0.02734 -0.69531,0.02734 -0.0859,0.01953 -0.23047,0.08984 -0.23047,0.339844 0,0.125 0.0625,0.222656 0.18359,0.265625 0.0859,0.03516 0.20313,0.05469 0.32813,0.06641 0.1289,0.0078 0.26562,0.01953 0.41015,0.03125 0.12891,0.0078 0.25781,0.03516 0.3711,0.07813 0.11328,0.03906 0.19921,0.105469 0.26953,0.203125 0.0664,0.09375 0.10156,0.230469 0.10156,0.414063 0,0.84375 -0.004,1.703124 -0.0195,2.558593 -0.0156,0.859375 -0.0234,1.714844 -0.0234,2.5625 l 0,3.121094 c 0,0.191406 -0.0352,0.34375 -0.10547,0.449219 -0.0742,0.109375 -0.16797,0.195312 -0.27734,0.257812 -0.11719,0.0625 -0.24219,0.113282 -0.375,0.132813 -0.14063,0.02734 -0.27344,0.04687 -0.39844,0.06641 -0.12891,0.02344 -0.23828,0.04687 -0.32422,0.07422 -0.16406,0.05078 -0.18359,0.167968 -0.18359,0.234375 0,0.179687 0.0273,0.277343 0.10156,0.324219 0.0547,0.03906 0.15234,0.05469 0.30469,0.05469 0.3164,0 0.63281,-0.01172 0.9414,-0.04687 0.64454,-0.0625 1.32813,-0.05859 1.99219,0.0078 0.35547,0.03516 0.72656,0.05469 1.09766,0.05469 0.21484,0 0.37109,-0.01563 0.48437,-0.05078 0.082,-0.02344 0.21485,-0.101563 0.21485,-0.34375 0,-0.125 -0.0664,-0.210938 -0.17188,-0.242188 -0.0781,-0.02344 -0.16015,-0.03516 -0.2539,-0.03516 -0.0625,0 -0.0781,-0.0039 -0.0781,-0.0039 l -0.0273,-0.0078 c -0.20703,-0.04297 -0.38282,-0.07031 -0.55078,-0.09375 -0.14844,-0.01953 -0.27735,-0.05469 -0.38282,-0.109375 -0.10156,-0.05078 -0.17578,-0.132812 -0.23437,-0.246093 -0.0586,-0.121094 -0.0898,-0.304688 -0.0898,-0.550782 l 0,-3.121094 c 0,-0.296874 0.0391,-0.402343 0.0586,-0.441406 0.0117,-0.01953 0.0703,-0.07031 0.28906,-0.07031 0.34375,0 0.63672,0.08203 0.86328,0.253906 0.23828,0.171875 0.44922,0.398438 0.62891,0.664062 0.17969,0.265626 0.34765,0.578126 0.49219,0.917969 0.14453,0.34375 0.30859,0.679688 0.47656,0.996094 0.30469,0.796875 0.76172,1.480469 1.35156,2.035156 0.58984,0.554688 1.32813,0.914063 2.20703,1.070313 0.0742,0.0078 0.16016,0.01953 0.26172,0.03125 0.10547,0.0078 0.21094,0.01563 0.3125,0.01563 0.26172,0 0.45313,-0.02344 0.57422,-0.06641 l 0.0312,-0.01953 c 0.11719,-0.117187 0.16797,-0.210937 0.16797,-0.296875 0,-0.08203 -0.0312,-0.21875 -0.25,-0.265625 m -4.40625,-7.144531 c -0.13672,0.292969 -0.32813,0.523438 -0.57422,0.691406 -0.24219,0.164063 -0.53906,0.285156 -0.87891,0.347656 -0.35156,0.0625 -0.72656,0.09375 -1.11718,0.09375 -0.17579,0 -0.29688,-0.01172 -0.3711,-0.03516 -0.0781,-0.02734 -0.10547,-0.07031 -0.11328,-0.09766 -0.0195,-0.05859 -0.0312,-0.132812 -0.0195,-0.230469 0,-0.109375 0.004,-0.238281 0.004,-0.390625 0,-0.402344 0.004,-0.859375 0.0117,-1.363281 0.008,-0.5 0.0156,-0.960937 0.0156,-1.363281 l 0,-0.515625 c 0,-0.21875 0.0508,-0.382813 0.14453,-0.492188 0.0625,-0.07031 0.22266,-0.15625 0.62891,-0.15625 0.35937,0 0.69922,0.05078 1,0.152344 0.29687,0.101563 0.5625,0.253906 0.78125,0.449219 0.21093,0.199218 0.39062,0.445312 0.51562,0.734375 0.1211,0.292969 0.1875,0.636719 0.1875,1.023437 0,0.472656 -0.0742,0.855469 -0.21484,1.152344"
       id="path4363"
       inkscape:connector-curvature="0" />
    <path
       style="fill:#ffffff;fill-opacity:1;fill-rule:nonzero;stroke:none"
       d="m 266.91406,55.816406 c -0.0586,0 -0.14453,0.02734 -0.21484,0.144532 -0.0391,0.0625 -0.0859,0.132812 -0.14844,0.210937 -0.0547,0.07422 -0.11719,0.144531 -0.19922,0.214844 -0.0664,0.05859 -0.15234,0.09766 -0.2539,0.113281 -0.14454,0.01953 -0.30079,0.03125 -0.44922,0.03516 -0.65625,0.02344 -1.27344,0.01172 -1.86328,0.02344 -1,0.02344 -2.17188,0.01953 -3.26172,-0.0078 -0.61328,-0.01563 -1.23828,-0.03516 -1.85938,-0.06641 -0.13281,-0.0078 -0.23828,-0.03906 -0.3125,-0.08984 -0.0703,-0.05469 -0.13672,-0.113281 -0.17969,-0.171875 -0.0508,-0.0625 -0.0937,-0.117187 -0.1289,-0.167968 -0.0664,-0.09375 -0.14453,-0.113282 -0.20313,-0.113282 -0.16015,0 -0.27734,0.03906 -0.36328,0.121094 -0.082,0.07422 -0.14844,0.171875 -0.1875,0.289062 -0.0391,0.105469 -0.0625,0.226563 -0.0742,0.363282 l -0.0273,0.351562 c -0.0508,0.519532 -0.11328,0.921875 -0.19531,1.207032 -0.082,0.296874 -0.125,0.53125 -0.125,0.714843 0,0.140625 0.0391,0.238281 0.10937,0.296875 0.0703,0.05469 0.16406,0.08203 0.28906,0.08203 0.082,0 0.15235,-0.07031 0.26563,-0.257813 0.0937,-0.152344 0.17969,-0.3125 0.26953,-0.480469 0.082,-0.160156 0.16406,-0.316406 0.23438,-0.464844 l 0.0234,-0.04687 c 0.0937,-0.1875 0.14844,-0.261719 0.17969,-0.292969 0.1875,-0.179688 0.38672,-0.300781 0.58984,-0.359375 0.20704,-0.06641 0.42188,-0.09766 0.64454,-0.09766 l 0.9414,0 c 0.23828,0 0.46485,0.01953 0.66797,0.05469 0.1875,0.02734 0.26563,0.07813 0.27344,0.113281 0.0117,0.04297 0.0156,0.128906 0.0195,0.265625 0.008,0.132813 0.008,0.226563 0.008,0.277344 l 0,7.332031 c 0,0.277344 -0.0156,0.515625 -0.043,0.699219 -0.0312,0.175781 -0.0859,0.324219 -0.16797,0.4375 -0.0781,0.109375 -0.20312,0.195313 -0.35937,0.265625 -0.16406,0.06641 -0.39453,0.113281 -0.69531,0.144531 -0.0195,0.0078 -0.0664,0.01563 -0.17188,0.01563 -0.10937,0 -0.21875,0.01563 -0.32422,0.05469 -0.0859,0.03906 -0.19531,0.121094 -0.19531,0.324218 0,0.222657 0.14844,0.265626 0.21484,0.273438 0.0859,0.01172 0.17579,0.01563 0.25782,0.01563 0.36328,0 0.73047,-0.01172 1.08984,-0.03906 0.72266,-0.05078 1.55469,-0.04687 2.27734,0 0.39844,0.02734 0.8086,0.03906 1.21485,0.03906 0.12109,0 0.23437,-0.0039 0.30859,-0.01563 0.125,-0.01953 0.1875,-0.136719 0.1875,-0.347656 0,-0.101563 -0.043,-0.269532 -0.34375,-0.304688 l -0.60156,-0.07031 c -0.21484,-0.02344 -0.41406,-0.08203 -0.60547,-0.171875 -0.17578,-0.08594 -0.28516,-0.246094 -0.33203,-0.503907 -0.0234,-0.152343 -0.043,-0.3125 -0.0469,-0.46875 -0.004,-0.160156 -0.008,-0.324218 -0.008,-0.480468 0.0195,-0.894532 0.0156,-1.792969 -0.004,-2.671875 -0.0312,-0.867188 -0.0312,-1.761719 -0.0117,-2.664063 l 0.0312,-1.851562 c 0,-0.222656 0.0117,-0.394532 0.0351,-0.5 0.0274,-0.125 0.0625,-0.179688 0.082,-0.195313 0.0234,-0.02344 0.0469,-0.03906 0.0859,-0.03516 0.13281,0.01172 0.28125,0.01172 0.51172,0 0.28125,-0.01172 0.66016,-0.01172 1.03906,0.01563 0.22657,0.01563 0.4375,0.03906 0.63672,0.07422 0.19531,0.03516 0.35938,0.08594 0.5,0.15625 0.125,0.06641 0.20703,0.148437 0.2461,0.25 0.0586,0.136719 0.082,0.285156 0.0703,0.445312 -0.008,0.167969 -0.0234,0.328125 -0.0352,0.472657 -0.0156,0.15625 -0.0117,0.289062 0.0117,0.390624 0.0156,0.08203 0.0781,0.21875 0.29688,0.21875 0.19921,0 0.33984,-0.136718 0.41796,-0.398437 0.0664,-0.222656 0.11719,-0.496094 0.15235,-0.804687 0.0312,-0.296876 0.0664,-0.609376 0.0898,-0.9375 0.0312,-0.308594 0.0742,-0.558594 0.14063,-0.738282 0.0469,-0.132812 0.0469,-0.273437 -0.008,-0.429687 -0.043,-0.113281 -0.14453,-0.257813 -0.41406,-0.257813"
       id="path4365"
       inkscape:connector-curvature="0" />
    <path
       style="fill:#ffffff;fill-opacity:1;fill-rule:nonzero;stroke:none"
       d="m 281.09375,56.398438 -0.0312,-0.0039 c -0.26953,0 -0.54297,0.0039 -0.82813,0.01953 -0.52734,0.03125 -1.0625,0.03516 -1.59765,-0.0039 -0.27344,-0.02344 -0.54297,-0.03125 -0.80078,-0.03125 -0.0937,0 -0.17578,0.01172 -0.25,0.03516 -0.0664,0.01563 -0.17969,0.07813 -0.17969,0.269532 0,0.21875 0.10547,0.324218 0.19141,0.375 0.10546,0.05859 0.23437,0.105468 0.3789,0.132812 0.14063,0.02344 0.27735,0.05078 0.42188,0.06641 0.125,0.01953 0.22656,0.0625 0.29687,0.132813 0.0781,0.0625 0.125,0.195313 0.15235,0.390625 0.0312,0.210938 0.0469,0.453125 0.0469,0.71875 0,0.273438 -0.008,0.558594 -0.0156,0.847656 -0.008,0.292969 -0.0195,0.554688 -0.0195,0.792969 l 0,3.242187 c 0,0.289063 -0.0273,0.578126 -0.0859,0.859376 -0.0899,0.503906 -0.21485,0.933593 -0.3711,1.273437 -0.15625,0.335937 -0.35937,0.613281 -0.60156,0.824219 -0.25,0.214844 -0.55078,0.367187 -0.90625,0.460937 -0.35937,0.08984 -0.79687,0.140625 -1.30469,0.140625 -0.42187,0 -0.80859,-0.04687 -1.16015,-0.136718 -0.33594,-0.08594 -0.62891,-0.242188 -0.875,-0.460938 -0.24219,-0.222656 -0.44532,-0.53125 -0.59766,-0.921875 -0.15234,-0.390625 -0.25,-0.902344 -0.28516,-1.515625 -0.0195,-0.300781 -0.0351,-0.613281 -0.043,-0.933594 -0.004,-0.316406 -0.004,-0.628906 -0.004,-0.941406 l 0,-2.785156 c 0,-0.152344 0,-0.3125 0.004,-0.484375 0.008,-0.167969 0.0195,-0.335938 0.0312,-0.496094 0.0156,-0.15625 0.0351,-0.300781 0.0547,-0.429687 0.0195,-0.125 0.0391,-0.222657 0.0664,-0.285157 0.0586,-0.132812 0.16016,-0.21875 0.29687,-0.265625 0.16797,-0.04687 0.33594,-0.08594 0.5,-0.117187 0.17579,-0.02734 0.33204,-0.06641 0.47266,-0.105469 0.17578,-0.05469 0.27344,-0.179688 0.27344,-0.363281 0,-0.160157 -0.0937,-0.261719 -0.26172,-0.289063 -0.12891,-0.02344 -0.23047,-0.03125 -0.31641,-0.03125 -0.35156,0 -0.70703,0.01563 -1.05078,0.04687 -0.63281,0.05469 -1.32422,0.0625 -1.98047,0 -0.32031,-0.03125 -0.64843,-0.04687 -0.97265,-0.04687 -0.25,0 -0.39453,0.140625 -0.39453,0.378906 0,0.101563 0.0391,0.183594 0.12109,0.242188 0.0625,0.05078 0.14844,0.08203 0.23437,0.101562 0.0781,0.01172 0.16016,0.02344 0.23829,0.03125 0.082,0.0039 0.14062,0.0078 0.19531,0.0078 l 0.16797,0 c 0.17187,0 0.30468,0.04297 0.39453,0.136719 0.0937,0.105468 0.16406,0.21875 0.20312,0.363281 0.043,0.144531 0.0664,0.308594 0.0703,0.484375 0.008,0.183594 0.008,0.34375 0.008,0.480469 0,0.863281 -0.0117,1.71875 -0.0274,2.546875 -0.0234,0.847656 -0.0312,1.707031 -0.0312,2.546875 l 0,0.5625 c 0,0.08984 0.004,0.183593 0.008,0.277343 0.008,0.08984 0.0117,0.183594 0.0273,0.273438 0.0586,0.601562 0.21094,1.101562 0.44922,1.496094 0.23828,0.390625 0.54687,0.714844 0.92578,0.953125 0.36719,0.234375 0.79688,0.40625 1.27344,0.507812 0.46484,0.09375 0.96875,0.144531 1.48828,0.144531 0.43359,0 0.89062,-0.03125 1.34766,-0.09766 0.45312,-0.07031 0.90234,-0.1875 1.33593,-0.347656 0.4961,-0.199219 0.89063,-0.484375 1.16407,-0.851562 0.26562,-0.359376 0.46875,-0.769532 0.60546,-1.214844 0.13282,-0.445313 0.21485,-0.917969 0.23438,-1.410156 0.0273,-0.492188 0.043,-0.960938 0.043,-1.398438 0,-0.273438 -0.004,-0.550781 -0.0117,-0.820312 -0.004,-0.273438 -0.008,-0.542969 -0.008,-0.816407 0,-0.304687 0,-0.660156 -0.004,-1.0625 -0.0117,-0.402343 -0.0117,-0.789062 0,-1.164062 0.004,-0.367188 0.0234,-0.695313 0.0469,-0.96875 0.043,-0.363281 0.10546,-0.402344 0.10937,-0.40625 0.0195,-0.01172 0.082,-0.03906 0.26563,-0.06641 0.14843,-0.01953 0.30468,-0.04687 0.46875,-0.08203 0.16796,-0.03906 0.3125,-0.08984 0.4414,-0.152343 0.19141,-0.09766 0.23828,-0.238282 0.23828,-0.339844 0,-0.101563 -0.0508,-0.234375 -0.27734,-0.316406"
       id="path4367"
       inkscape:connector-curvature="0" />
    <path
       style="fill:#ffffff;fill-opacity:1;fill-rule:nonzero;stroke:none"
       d="m 46.976562,89.230469 c 0.0078,-0.289063 0.01172,-0.585938 0.01172,-0.878907 0,-0.08984 0.0039,-0.167968 0.0078,-0.234374 0.0039,-0.03516 0.01172,-0.05859 0.02344,-0.07813 0.0039,-0.0039 0.02344,-0.02344 0.07813,-0.04297 0.04297,-0.01172 0.121094,-0.02734 0.269532,-0.02734 0.08984,0 0.171874,-0.01172 0.242187,-0.03125 0.140625,-0.03906 0.226563,-0.15625 0.226563,-0.316406 0,-0.07813 -0.03906,-0.152344 -0.105469,-0.21875 l -0.05469,-0.05859 -0.761719,0 c -0.07812,0 -0.160156,0.0039 -0.246093,0.01563 -0.222657,0.01953 -0.421875,0.0078 -0.582031,-0.01172 -0.121094,-0.01953 -0.265626,-0.02734 -0.421876,-0.02734 l -0.08594,0 c -0.05469,0 -0.109375,0.0039 -0.167969,0.01563 -0.144531,0.02344 -0.238281,0.132812 -0.238281,0.277343 0,0.210938 0.136719,0.292969 0.191406,0.316407 0.07031,0.02734 0.15625,0.04687 0.246094,0.05078 0.06641,0.0078 0.136719,0.01563 0.207031,0.02734 0.03906,0.0078 0.07031,0.02344 0.08203,0.02734 0,0.0039 0.01953,0.03125 0.03516,0.132813 0.01172,0.09375 0.01953,0.179687 0.01953,0.261719 l 0,0.144531 c 0,0.128906 0,0.253906 0,0.386719 -0.0039,0.128906 -0.0078,0.261718 -0.0078,0.394531 l -0.0078,0.714843 c 0,0.08984 -0.0039,0.1875 -0.01563,0.285157 -0.0078,0.07422 -0.02734,0.09375 -0.03516,0.101562 -0.03125,0.02344 -0.06641,0.03906 -0.113281,0.05078 -0.07031,0.01563 -0.144532,0.03125 -0.214844,0.04688 -0.07813,0.01562 -0.148438,0.03125 -0.210938,0.05078 -0.128906,0.04687 -0.207031,0.152343 -0.207031,0.28125 0,0.140625 0.07422,0.25 0.203125,0.296875 0.07031,0.02734 0.140625,0.03906 0.214844,0.03906 l 0.113281,0 c 0.08203,0 0.15625,-0.0039 0.21875,-0.0078 0.0625,-0.0039 0.121094,-0.01172 0.171875,-0.02344 0.04687,-0.0039 0.09766,-0.01172 0.148438,-0.01563 0.152343,-0.01563 0.390624,-0.0078 0.605468,0.01563 0.238282,0.02344 0.480469,0.03516 0.707032,0.01172 0.175781,-0.01953 0.285156,-0.140625 0.285156,-0.316406 0,-0.136719 -0.08594,-0.242188 -0.226563,-0.277344 -0.0625,-0.01953 -0.136719,-0.03516 -0.21875,-0.04687 -0.07422,-0.01563 -0.148437,-0.03125 -0.230469,-0.04297 -0.04297,-0.0078 -0.07812,-0.02344 -0.09766,-0.04297 -0.01563,-0.0078 -0.03125,-0.03125 -0.04297,-0.07812 -0.01172,-0.06641 -0.02344,-0.132813 -0.02734,-0.195313 l 0,-0.101563 c 0,-0.292968 0.0039,-0.582031 0.01172,-0.871093"
       id="path4369"
       inkscape:connector-curvature="0" />
    <path
       style="fill:#ffffff;fill-opacity:1;fill-rule:nonzero;stroke:none"
       d="m 52.027344,87.941406 c -0.144532,-0.15625 -0.324219,-0.285156 -0.527344,-0.375 -0.339844,-0.148437 -0.769531,-0.179687 -1.144531,-0.07422 -0.140625,0.03906 -0.273438,0.09375 -0.394531,0.152343 -0.03516,0.01953 -0.06641,0.03906 -0.101563,0.05859 0.08203,-0.226563 0.179687,-0.441406 0.300781,-0.648437 0.207032,-0.367188 0.480469,-0.691407 0.808594,-0.96875 0.07422,-0.06641 0.148438,-0.125 0.226562,-0.183594 0.07422,-0.05469 0.152344,-0.105469 0.222657,-0.148438 0.01953,-0.0078 0.05469,-0.02344 0.105469,-0.04687 0.05469,-0.02344 0.109374,-0.05078 0.160156,-0.07813 0.0625,-0.03125 0.117187,-0.06641 0.167968,-0.105468 0.08594,-0.07031 0.128907,-0.148438 0.128907,-0.234376 0,-0.08984 -0.03906,-0.171874 -0.109375,-0.234374 -0.03906,-0.03516 -0.07422,-0.0625 -0.113282,-0.08594 l -0.05078,-0.03125 -0.0625,0.0078 c -0.07813,0.0039 -0.160156,0.02734 -0.253906,0.06641 -0.07813,0.03125 -0.148437,0.0625 -0.207031,0.08984 -0.375,0.171876 -0.726563,0.390626 -1.050782,0.648438 -0.324218,0.257812 -0.609374,0.554688 -0.855468,0.882812 -0.242188,0.328126 -0.4375,0.691407 -0.578125,1.074219 -0.136719,0.390625 -0.207031,0.804688 -0.207031,1.230469 0,0.222656 0.02344,0.441406 0.07031,0.652344 0.04687,0.214844 0.121094,0.417968 0.21875,0.605468 0.101562,0.191407 0.234375,0.363282 0.390625,0.511719 0.15625,0.152344 0.351563,0.277344 0.578125,0.378907 0.273438,0.109374 0.550781,0.167968 0.824219,0.167968 0.285156,0 0.546875,-0.05859 0.78125,-0.175781 0.230469,-0.113281 0.433593,-0.269531 0.597656,-0.464844 0.164063,-0.195312 0.292969,-0.414062 0.382813,-0.660156 0.08984,-0.242187 0.136718,-0.5 0.136718,-0.765625 0,-0.242188 -0.03906,-0.472656 -0.113281,-0.683594 -0.07422,-0.214844 -0.1875,-0.402344 -0.332031,-0.5625 m -1.105469,2.585938 c -0.101563,0.07031 -0.226563,0.105468 -0.378906,0.105468 -0.183594,0 -0.324219,-0.04297 -0.4375,-0.128906 -0.121094,-0.09375 -0.21875,-0.210937 -0.289063,-0.351562 -0.07422,-0.15625 -0.125,-0.324219 -0.15625,-0.503906 -0.03516,-0.1875 -0.05078,-0.371094 -0.05078,-0.539063 0,-0.08984 0.0039,-0.171875 0.01172,-0.25 l 0.02344,-0.199219 c 0.03516,-0.03906 0.07813,-0.08203 0.128907,-0.128906 0.06641,-0.0625 0.144531,-0.121094 0.226562,-0.179688 0.07813,-0.05078 0.167969,-0.09766 0.257812,-0.140624 0.234376,-0.09766 0.480469,-0.05078 0.644532,0.04297 0.113281,0.06641 0.203125,0.148438 0.273437,0.257813 0.07422,0.109375 0.128907,0.234375 0.164063,0.382812 0.03906,0.148438 0.05859,0.300781 0.05859,0.457031 0,0.144532 -0.01563,0.296876 -0.05078,0.457032 -0.03125,0.15625 -0.08594,0.296875 -0.160156,0.421875 -0.06641,0.121093 -0.15625,0.21875 -0.265625,0.296875"
       id="path4371"
       inkscape:connector-curvature="0" />
    <path
       style="fill:#ffffff;fill-opacity:1;fill-rule:nonzero;stroke:none"
       d="m 55.710938,89.78125 c -0.148438,-0.140625 -0.332032,-0.246094 -0.542969,-0.3125 -0.06641,-0.02344 -0.132813,-0.03906 -0.199219,-0.05078 0.08984,-0.08984 0.175781,-0.191407 0.257812,-0.292969 0.109376,-0.136719 0.203126,-0.28125 0.28125,-0.425781 0.08984,-0.164063 0.132813,-0.316407 0.132813,-0.457031 0,-0.191407 -0.03516,-0.355469 -0.109375,-0.492188 -0.07031,-0.132812 -0.164062,-0.246094 -0.28125,-0.332031 -0.113281,-0.08203 -0.242188,-0.144531 -0.382812,-0.183594 -0.269532,-0.07031 -0.558594,-0.07813 -0.855469,0.03906 -0.140625,0.05859 -0.269531,0.128906 -0.386719,0.207031 -0.117188,0.08203 -0.21875,0.175781 -0.292969,0.273437 -0.09766,0.121094 -0.140625,0.238282 -0.128906,0.371094 0.01172,0.07422 0.04687,0.140625 0.105469,0.195312 0.06641,0.05469 0.128906,0.06641 0.167968,0.06641 0.0625,0 0.121094,-0.02734 0.175782,-0.08203 0.113281,-0.125 0.21875,-0.226563 0.3125,-0.300782 0.128906,-0.109375 0.402344,-0.128906 0.582031,0.04297 0.08594,0.08203 0.128906,0.21875 0.128906,0.410156 0,0.109375 -0.03125,0.214844 -0.09375,0.332031 -0.07422,0.125 -0.167969,0.25 -0.277343,0.363282 -0.113282,0.117187 -0.238282,0.222656 -0.367188,0.320312 -0.128906,0.09375 -0.25,0.171875 -0.347656,0.226563 l -0.152344,0.07031 c -0.1875,0.08984 -0.214844,0.222657 -0.214844,0.292969 0,0.191406 0.125,0.324219 0.308594,0.324219 0.07031,0 0.140625,-0.03125 0.246094,-0.09766 0.05078,-0.03516 0.08984,-0.0625 0.132812,-0.07812 0.06641,-0.03516 0.128906,-0.05078 0.195313,-0.05078 l 0.03516,0 c 0.109375,0.01172 0.210937,0.02344 0.308594,0.04297 0.101562,0.01953 0.195312,0.05859 0.273437,0.117187 0.07813,0.05469 0.148438,0.128907 0.203125,0.214844 0.05859,0.08984 0.101563,0.1875 0.132813,0.292969 0.03125,0.109375 0.04687,0.214844 0.04687,0.320313 0,0.203124 -0.03906,0.394531 -0.125,0.558593 -0.08203,0.167969 -0.199219,0.320313 -0.347657,0.449219 -0.148437,0.136719 -0.328124,0.253906 -0.527343,0.351562 -0.203125,0.09766 -0.417969,0.179688 -0.640625,0.242188 -0.07031,0.0078 -0.128906,0.04687 -0.167969,0.101562 -0.03516,0.04297 -0.05469,0.09766 -0.0625,0.15625 -0.0078,0.07031 0.01172,0.132813 0.05078,0.191407 0.02734,0.04297 0.09766,0.109375 0.222656,0.109375 l 0.0039,0 c 0.296875,-0.0078 0.601562,-0.07422 0.910156,-0.203125 0.308594,-0.125 0.59375,-0.296875 0.84375,-0.507813 0.257813,-0.21875 0.472656,-0.46875 0.636719,-0.753906 0.175781,-0.292969 0.261718,-0.609375 0.261718,-0.933594 0,-0.222656 -0.03906,-0.433594 -0.113281,-0.621094 -0.07813,-0.195312 -0.195312,-0.367187 -0.339843,-0.507812"
       id="path4373"
       inkscape:connector-curvature="0" />
    <path
       style="fill:#ffffff;fill-opacity:1;fill-rule:nonzero;stroke:none"
       d="m 60.246094,89.714844 c -0.02734,-0.0625 -0.08984,-0.152344 -0.226563,-0.207032 -0.140625,-0.05469 -0.285156,-0.01172 -0.382812,0.121094 l -0.21875,0.316406 c -0.05469,0.07813 -0.113281,0.15625 -0.171875,0.238282 -0.05859,0.08203 -0.113282,0.15625 -0.160156,0.214844 0,0 -0.03516,0.03125 -0.175782,0.05859 -0.136718,0.02734 -0.292968,0.04687 -0.453125,0.05469 -0.144531,0.0078 -0.28125,0.0078 -0.414062,0 0.04687,-0.04687 0.09766,-0.101563 0.152343,-0.160157 0.105469,-0.113281 0.21875,-0.238281 0.335938,-0.378906 0.117188,-0.140625 0.226562,-0.285156 0.332031,-0.433594 0.105469,-0.144531 0.199219,-0.289062 0.277344,-0.425781 0.08594,-0.144531 0.140625,-0.277343 0.167969,-0.394531 0.128906,-0.445312 0.08594,-0.8125 -0.121094,-1.097656 -0.210938,-0.285156 -0.539062,-0.429688 -0.976562,-0.429688 -0.08203,0 -0.164063,0.0039 -0.246094,0.0078 -0.08984,0.0039 -0.183594,0.02344 -0.28125,0.05469 -0.09766,0.03125 -0.195313,0.08203 -0.300782,0.152344 -0.101562,0.06641 -0.207031,0.160156 -0.316406,0.285156 -0.02344,0.01563 -0.05078,0.05078 -0.08594,0.09766 l -0.07813,0.113282 c -0.03516,0.04687 -0.06641,0.09766 -0.08984,0.144531 -0.03125,0.06641 -0.04687,0.121094 -0.04687,0.171875 0,0.09766 0.04297,0.183594 0.125,0.238281 0.08594,0.0625 0.191406,0.07031 0.289063,0.02344 0.06641,-0.03125 0.121093,-0.08984 0.171874,-0.175781 0.01953,-0.03906 0.05469,-0.08594 0.09766,-0.136719 0.03516,-0.03906 0.08594,-0.07422 0.152343,-0.105469 0.04688,-0.02344 0.132813,-0.04687 0.296876,-0.04687 0.292968,0 0.375,0.121094 0.402343,0.160156 0.07031,0.109375 0.06641,0.277344 -0.01953,0.496094 -0.05469,0.136719 -0.128906,0.285156 -0.222656,0.449219 -0.09766,0.167968 -0.210938,0.347656 -0.332032,0.523437 -0.125,0.183594 -0.261718,0.367188 -0.402343,0.550781 -0.144531,0.179688 -0.289063,0.351563 -0.421875,0.5 -0.07813,0.07813 -0.09766,0.160157 -0.09766,0.210938 0,0.05078 0,0.195312 0.113281,0.285156 0.05078,0.03906 0.117187,0.0625 0.191406,0.07031 l 0.05859,0.0039 c 0.101562,0 0.171875,-0.07031 0.214843,-0.121094 0.121094,0 0.25,0 0.398438,-0.0039 0.167969,0 0.316406,-0.0039 0.445312,-0.0039 0.320313,0.01172 0.589844,0.03125 0.800782,0.0625 0.21875,0.03516 0.410156,0.05859 0.550781,0.07031 l 0.03516,0 c 0.113281,0 0.234375,-0.07813 0.25,-0.253906 0.0078,-0.05078 0.01563,-0.132813 0.03125,-0.234375 0.01563,-0.101562 0.04687,-0.226562 0.09375,-0.378906 0.04297,-0.148438 0.125,-0.320313 0.246094,-0.507813 l 0.05469,-0.08594 z m 0,0"
       id="path4375"
       inkscape:connector-curvature="0" />
    <path
       style="fill:#ffffff;fill-opacity:1;fill-rule:nonzero;stroke:none"
       d="m 37.515625,53.15625 15.441406,-7.285156 15.441407,7.285156 z m 0,0"
       id="path4377"
       inkscape:connector-curvature="0" />
    <path
       style="fill:#ffffff;fill-opacity:1;fill-rule:nonzero;stroke:none"
       d="m 36.78125,56.070312 32.351562,0 0,-1.457031 -32.351562,0 z m 0,0"
       id="path4379"
       inkscape:connector-curvature="0" />
    <path
       style="fill:#ffffff;fill-opacity:1;fill-rule:nonzero;stroke:none"
       d="m 36.78125,81.585938 8.824219,0 0,-4.375 -8.824219,0 z m 0,0"
       id="path4381"
       inkscape:connector-curvature="0" />
    <path
       style="fill:#ffffff;fill-opacity:1;fill-rule:nonzero;stroke:none"
       d="m 69.132812,81.582031 -8.824218,0 0,-4.371093 8.824218,0 z m 0,0"
       id="path4383"
       inkscape:connector-curvature="0" />
    <path
       style="fill:#ffffff;fill-opacity:1;fill-rule:nonzero;stroke:none"
       d="m 51.488281,81.582031 -2.941406,0 0,-4.371093 2.941406,0 z m 0,0"
       id="path4385"
       inkscape:connector-curvature="0" />
    <path
       style="fill:#ffffff;fill-opacity:1;fill-rule:nonzero;stroke:none"
       d="m 57.367188,81.582031 -2.941407,0 0,-4.371093 2.941407,0 z m 0,0"
       id="path4387"
       inkscape:connector-curvature="0" />
    <path
       style="fill:#ffffff;fill-opacity:1;fill-rule:nonzero;stroke:none"
       d="m 37.148438,57.527344 -0.367188,18.226562 2.941406,0 -0.367187,-18.226562 z m 0,0"
       id="path4389"
       inkscape:connector-curvature="0" />
    <path
       style="fill:#ffffff;fill-opacity:1;fill-rule:nonzero;stroke:none"
       d="m 45.238281,57.527344 0.367188,18.226562 -2.941407,0 0.367188,-18.226562 z m 0,0"
       id="path4391"
       inkscape:connector-curvature="0" />
    <path
       style="fill:#ffffff;fill-opacity:1;fill-rule:nonzero;stroke:none"
       d="m 51.121094,57.527344 0.367187,18.226562 -2.941406,0 0.367187,-18.226562 z m 0,0"
       id="path4393"
       inkscape:connector-curvature="0" />
    <path
       style="fill:#ffffff;fill-opacity:1;fill-rule:nonzero;stroke:none"
       d="m 57,57.527344 0.367188,18.226562 -2.941407,0 0.367188,-18.226562 z m 0,0"
       id="path4395"
       inkscape:connector-curvature="0" />
    <path
       style="fill:#ffffff;fill-opacity:1;fill-rule:nonzero;stroke:none"
       d="M 62.882812,57.527344 63.25,75.753906 l -2.941406,0 0.371094,-18.226562 z m 0,0"
       id="path4397"
       inkscape:connector-curvature="0" />
    <path
       style="fill:#ffffff;fill-opacity:1;fill-rule:nonzero;stroke:none"
       d="m 68.765625,57.527344 0.363281,18.226562 -2.9375,0 0.367188,-18.226562 z m 0,0"
       id="path4399"
       inkscape:connector-curvature="0" />
    <path
       style="fill:#ffffff;fill-opacity:1;fill-rule:nonzero;stroke:none"
       d="m 52.957031,42.226562 -16.175781,7.652344 0,1.820313 16.175781,-7.652344 16.175781,7.652344 0,-1.820313 z m 0,0"
       id="path4401"
       inkscape:connector-curvature="0" />
  </g>
</svg>
